<svg width="33" height="33" viewBox="0 0 33 33" fill="none" xmlns="http://www.w3.org/2000/svg">
<circle cx="16.5" cy="16.5" r="16" stroke="#2A2E4A"/>
<path d="M8.37389 19.8572V11.8172L8.75789 12.2252H6.39389V11.4572H9.23789V19.8572H8.37389ZM14.4378 19.9292C13.7658 19.9292 13.1858 19.8332 12.6978 19.6412C12.2178 19.4492 11.8458 19.1732 11.5818 18.8132C11.3258 18.4452 11.1978 18.0132 11.1978 17.5172C11.1978 17.0372 11.3218 16.6292 11.5698 16.2932C11.8258 15.9492 12.1938 15.6852 12.6738 15.5012C13.1618 15.3172 13.7498 15.2252 14.4378 15.2252C15.1178 15.2252 15.7018 15.3172 16.1898 15.5012C16.6778 15.6852 17.0498 15.9492 17.3058 16.2932C17.5698 16.6292 17.7018 17.0372 17.7018 17.5172C17.7018 18.0132 17.5698 18.4452 17.3058 18.8132C17.0418 19.1732 16.6658 19.4492 16.1778 19.6412C15.6898 19.8332 15.1098 19.9292 14.4378 19.9292ZM14.4378 19.1972C15.1818 19.1972 15.7618 19.0452 16.1778 18.7412C16.6018 18.4372 16.8138 18.0252 16.8138 17.5052C16.8138 16.9852 16.6018 16.5772 16.1778 16.2812C15.7618 15.9772 15.1818 15.8252 14.4378 15.8252C13.6938 15.8252 13.1138 15.9772 12.6978 16.2812C12.2818 16.5772 12.0738 16.9852 12.0738 17.5052C12.0738 18.0252 12.2818 18.4372 12.6978 18.7412C13.1138 19.0452 13.6938 19.1972 14.4378 19.1972ZM14.4378 15.7172C13.8138 15.7172 13.2818 15.6332 12.8418 15.4652C12.4098 15.2972 12.0778 15.0572 11.8458 14.7452C11.6138 14.4252 11.4978 14.0452 11.4978 13.6052C11.4978 13.1412 11.6178 12.7452 11.8578 12.4172C12.1058 12.0812 12.4498 11.8252 12.8898 11.6492C13.3298 11.4732 13.8458 11.3852 14.4378 11.3852C15.0298 11.3852 15.5458 11.4732 15.9858 11.6492C16.4338 11.8252 16.7818 12.0812 17.0298 12.4172C17.2778 12.7452 17.4018 13.1412 17.4018 13.6052C17.4018 14.0452 17.2858 14.4252 17.0538 14.7452C16.8218 15.0572 16.4818 15.2972 16.0338 15.4652C15.5938 15.6332 15.0618 15.7172 14.4378 15.7172ZM14.4378 15.1412C15.0938 15.1412 15.6058 15.0052 15.9738 14.7332C16.3418 14.4612 16.5258 14.0972 16.5258 13.6412C16.5258 13.1612 16.3338 12.7892 15.9498 12.5252C15.5738 12.2532 15.0698 12.1172 14.4378 12.1172C13.8058 12.1172 13.3018 12.2532 12.9258 12.5252C12.5498 12.7892 12.3618 13.1572 12.3618 13.6292C12.3618 14.0932 12.5418 14.4612 12.9018 14.7332C13.2698 15.0052 13.7818 15.1412 14.4378 15.1412Z" fill="#2A2E4A"/>
<path d="M23.5007 19.7725V14.6845H24.2567V19.7725H23.5007ZM21.2687 17.5885V16.8805H26.4887V17.5885H21.2687Z" fill="#2A2E4A"/>
</svg>
