<svg width="429" height="608" viewBox="0 0 429 608" fill="none" xmlns="http://www.w3.org/2000/svg">
<path d="M335.29 79.746L303.813 61.8935V71.7594L307.102 73.6386L305.223 75.9876L303.813 78.3366L302.874 82.0951C302.874 82.0951 302.124 84.852 302.874 86.3233C303.524 87.6001 305.223 88.6723 305.223 88.6723L297.236 96.659L328.713 114.981L332.471 112.163L333.881 104.176L331.062 100.887V95.7194L332.471 92.9006L335.29 89.6119V79.746Z" fill="#D8D8D8"/>
<path d="M299.585 112.163V101.357L301.934 102.766V111.693L330.122 128.136V119.679L328.713 118.74L332.471 116.861V131.424L334.35 132.834L328.243 136.592L295.826 117.33L301.934 113.572L299.585 112.163Z" fill="#D8D8D8"/>
<path d="M295.357 118.27V121.559C295.357 121.559 294.21 121.521 293.477 121.559C292.182 121.625 291.425 121.636 290.189 122.028C289.016 122.4 287.37 123.438 287.37 123.438L269.987 113.572L267.638 114.981L288.31 127.196L292.068 134.243L293.008 143.17L293.138 143.097L309.921 133.774L310.39 130.485L327.773 140.821V138.002L295.357 118.27Z" fill="#D8D8D8"/>
<path d="M307.102 205.654L339.988 176.526L306.162 156.794V144.109L291.128 152.566L285.021 149.277L255.621 167.343L307.102 205.654Z" fill="#D8D8D8"/>
<path d="M306.162 59.0747V52.0276C306.162 52.0276 315.046 53.4831 320.256 55.786C328.852 59.5856 339.048 70.8198 339.048 70.8198V78.3366L306.162 59.0747Z" fill="#D8D8D8"/>
<path d="M347.505 87.7327V106.525H348.445V87.7327H347.505Z" fill="#D8D8D8"/>
<path d="M335.29 79.746L303.813 61.8935V71.7594L307.102 73.6386L305.223 75.9876L303.813 78.3366L302.874 82.0951C302.874 82.0951 302.124 84.852 302.874 86.3233C303.524 87.6001 305.223 88.6723 305.223 88.6723L297.236 96.659L328.713 114.981L332.471 112.163L333.881 104.176L331.062 100.887V95.7194L332.471 92.9006L335.29 89.6119V79.746Z" stroke="black" stroke-width="0.2"/>
<path d="M299.585 112.163V101.357L301.934 102.766V111.693L330.122 128.136V119.679L328.713 118.74L332.471 116.861V131.424L334.35 132.834L328.243 136.592L295.826 117.33L301.934 113.572L299.585 112.163Z" stroke="black" stroke-width="0.2"/>
<path d="M295.357 118.27V121.559C295.357 121.559 294.21 121.521 293.477 121.559C292.182 121.625 291.425 121.636 290.189 122.028C289.016 122.4 287.37 123.438 287.37 123.438L269.987 113.572L267.638 114.981L288.31 127.196L292.068 134.243L293.008 143.17L293.138 143.097L309.921 133.774L310.39 130.485L327.773 140.821V138.002L295.357 118.27Z" stroke="black" stroke-width="0.2"/>
<path d="M307.102 205.654L339.988 176.526L306.162 156.794V144.109L291.128 152.566L285.021 149.277L255.621 167.343L307.102 205.654Z" stroke="black" stroke-width="0.2"/>
<path d="M306.162 59.0747V52.0276C306.162 52.0276 315.046 53.4831 320.256 55.786C328.852 59.5856 339.048 70.8198 339.048 70.8198V78.3366L306.162 59.0747Z" stroke="black" stroke-width="0.2"/>
<path d="M347.505 87.7327V106.525H348.445V87.7327H347.505Z" stroke="black" stroke-width="0.2"/>
<path d="M306.162 59.0747L303.813 61.8935L335.29 79.746L338.579 78.8064V77.8668L306.162 59.0747Z" fill="#027027"/>
<path d="M305.223 69.8802V64.2425L333.881 80.2159V86.7931L305.223 69.8802Z" fill="#027027"/>
<path d="M297.236 99.9476V96.659L328.713 114.981L332.471 112.163V116.861L328.713 118.74L297.236 99.9476Z" fill="#027027"/>
<path d="M295.826 117.33L295.357 118.27L327.773 138.002L328.243 136.592L295.826 117.33Z" fill="#027027"/>
<path d="M293.477 148.807L309.921 138.472C309.921 138.472 310.892 137.527 310.86 136.592C310.821 135.433 309.921 133.774 309.921 133.774C309.921 133.774 311.674 134.5 312.27 135.653C312.949 136.967 313.209 139.881 313.209 139.881L306.162 144.109L291.128 152.566C291.128 152.566 291.598 135.183 290.659 132.834C289.494 129.923 288.31 127.196 288.31 127.196C288.31 127.196 288.772 126.461 289.249 126.257C289.755 126.04 290.189 126.257 290.189 126.257L291.128 128.606C291.128 128.606 292.332 132.104 292.538 133.304C293.191 137.105 293.008 143.17 293.008 143.17L293.477 148.807Z" fill="#027027"/>
<path d="M292.538 163.841L293.478 163.371L300.055 167.13L301.934 165.72C301.934 165.72 303.207 164.432 303.343 163.371C303.492 162.22 302.404 160.552 302.404 160.552L301.464 159.613C301.464 159.613 300.344 158.718 299.585 158.203C298.7 157.603 298.238 157.168 297.236 156.794C296.36 156.467 294.887 156.324 294.887 156.324L293.478 159.143V157.734L293.947 156.324H293.478V154.915C293.478 154.915 296.123 155.258 297.706 155.854C298.857 156.289 299.489 156.598 300.525 157.264C301.513 157.899 302.109 158.251 302.874 159.143C304.05 160.515 305.098 161.665 304.753 163.371C304.49 164.668 303.897 165.592 302.874 166.66C301.958 167.615 300.055 168.539 300.055 168.539C300.055 168.539 299.002 168.956 297.706 169.479C296.252 170.065 296.424 170.582 294.887 170.888C292.362 171.392 287.37 170.888 287.37 170.888C287.37 170.888 284.994 170.094 283.612 169.479C281.701 168.627 280.575 167.909 279.383 166.19L279.332 166.116C278.564 165.009 278.05 164.266 277.974 162.901C277.9 161.568 278.233 160.762 278.914 159.613C279.776 158.158 280.753 157.667 282.202 156.794C283.399 156.073 285.961 155.385 285.961 155.385C285.961 155.385 287.376 154.967 288.31 154.915C288.676 154.894 289.249 154.915 289.249 154.915V156.324C289.249 156.324 287.336 156.56 286.43 156.794C285.307 157.084 284.658 157.233 283.612 157.734C282.418 158.304 281.725 158.674 280.793 159.613C280.146 160.264 279.673 160.622 279.383 161.492C279.093 162.362 279.383 163.841 279.383 163.841L289.249 162.432V163.371L280.323 165.25C280.323 165.25 281.32 166.583 282.202 167.13C282.551 167.346 282.767 167.433 283.142 167.599C285.346 168.581 286.26 168.919 288.31 169.009C290.334 169.098 297.236 168.069 297.236 168.069L298.645 167.599L292.538 163.841Z" fill="#027027"/>
<path d="M306.162 52.0276L328.713 39.3429C328.713 39.3429 340.103 41.8617 346.565 46.39C352.549 50.5827 359.72 60.0143 359.72 60.0143V117.8V153.975L339.988 176.526L306.162 156.794V144.109C306.162 144.109 311.8 140.351 312.27 139.881C313.308 138.843 312.866 137.464 312.27 136.123C311.743 134.937 309.921 133.774 309.921 133.774L310.39 130.485L328.243 140.821L338.109 135.653L338.579 70.35C338.579 70.35 330.194 61.4591 323.545 57.6653C317.241 54.0683 306.162 52.0276 306.162 52.0276Z" fill="#33CEFF"/>
<path d="M301.934 111.693V102.766L330.592 119.679L330.122 128.136L301.934 111.693Z" fill="#33CEFF"/>
<path d="M303.291 77.5016L303.813 71.7594L307.102 73.6386C307.102 73.6386 305.139 76.0765 304.283 77.8668C303.532 79.437 302.874 82.0951 302.874 82.0951C302.874 82.0951 302.124 84.852 302.874 86.3233C303.524 87.6001 305.223 88.6723 305.223 88.6723L301.464 92.4308L303.291 77.5016Z" fill="#33CEFF"/>
<path d="M313.679 99.9476L311.33 98.5382L313.679 96.1892L316.028 97.5986L313.679 99.9476Z" fill="#33CEFF"/>
<path d="M319.317 103.706L316.968 102.297L319.317 99.9476L321.666 101.357L319.317 103.706Z" fill="#33CEFF"/>
<path d="M291.128 152.566L289.249 151.626V167.859C289.249 167.859 290.664 168.114 291.598 168.069C292.354 168.033 293.478 168.069 293.478 168.069V151.156L291.128 152.566Z" fill="#33CEFF"/>
<path d="M324.954 107.464L322.605 106.055L324.954 103.706L327.303 105.115L324.954 107.464Z" fill="#33CEFF"/>
<path d="M308.041 96.1892L305.692 94.7798L308.041 92.4308L310.39 93.8402L308.041 96.1892Z" fill="#33CEFF"/>
<path d="M308.041 58.1351V54.3766C308.041 54.3766 315.717 56.0594 320.256 58.1351C327.531 61.4619 336.699 70.35 336.699 70.35V75.048L308.041 58.1351Z" fill="#00032D"/>
<path d="M338.579 78.8064L335.29 79.746V89.6119C335.29 89.6119 331.902 92.6289 331.062 95.2496C330.278 97.6955 330.122 99.4778 331.532 101.827C332.212 102.961 333.881 104.176 333.881 104.176L332.471 112.034V113.102V131.424L334.35 132.834L328.243 136.592L327.773 138.002V140.821H328.243L338.109 135.653L338.579 78.8064Z" fill="#00032D"/>
<path d="M330.122 86.7931L328.243 85.8535C328.243 85.8535 326.111 87.6548 325.178 89.1421C324.237 90.6417 323.791 91.6174 323.545 93.3704C323.289 95.1964 324.015 98.0684 324.015 98.0684L325.894 99.4778C325.894 99.4778 325.095 96.3095 325.424 94.31C325.679 92.7632 326.056 91.9127 326.833 90.5515C327.801 88.8581 330.122 86.7931 330.122 86.7931Z" fill="#00032D"/>
<path d="M300.055 116.861L298.175 118.27L326.833 135.183L329.652 133.304L300.055 116.861Z" fill="#00032D"/>
<path d="M293.477 148.807L293.008 143.17L310.39 133.774C310.39 133.774 310.896 135.477 310.86 136.592C310.83 137.527 310.751 137.807 310.39 138.472C309.83 139.504 308.041 140.351 308.041 140.351L293.477 148.807Z" fill="#00032D"/>
<path d="M291.128 152.566L269.517 140.821V119.919L267.638 114.981L288.31 127.196C288.31 127.196 289.692 130.303 290.659 132.834C291.377 134.713 291.128 152.566 291.128 152.566Z" fill="#00032D"/>
<path d="M325.424 83.9743L323.545 83.0347C323.545 83.0347 321.413 84.836 320.48 86.3233C319.539 87.8228 319.093 88.7986 318.847 90.5515C318.591 92.3775 319.317 95.2496 319.317 95.2496L321.196 96.659C321.196 96.659 320.397 93.4907 320.726 91.4911C320.981 89.9444 321.358 89.0939 322.135 87.7327C323.103 86.0392 325.424 83.9743 325.424 83.9743Z" fill="#00032D"/>
<path d="M318.847 80.2159L316.968 79.2762C316.968 79.2762 314.835 81.0776 313.902 82.5649C312.962 84.0644 312.515 85.0402 312.27 86.7931C312.014 88.6191 312.739 91.4911 312.739 91.4911L314.619 92.9006C314.619 92.9006 313.819 89.7323 314.149 87.7327C314.404 86.186 314.781 85.3354 315.558 83.9743C316.526 82.2808 318.847 80.2159 318.847 80.2159Z" fill="#00032D"/>
<path d="M313.209 76.4574L311.33 75.5178C311.33 75.5178 309.198 77.3191 308.265 78.8064C307.324 80.306 306.878 81.2817 306.632 83.0347C306.376 84.8607 307.102 87.7327 307.102 87.7327L308.981 89.1421C308.981 89.1421 308.182 85.9738 308.511 83.9743C308.766 82.4276 309.143 81.577 309.921 80.2159C310.888 78.5224 313.209 76.4574 313.209 76.4574Z" fill="#00032D"/>
<path d="M311.33 99.4778V98.5382L313.679 99.9476L316.028 97.5986V98.5382L313.679 100.887L311.33 99.4778Z" fill="#00032D"/>
<path d="M316.968 103.236V102.297L319.317 103.706L321.666 101.357V102.297L319.317 104.646L316.968 103.236Z" fill="#00032D"/>
<path d="M279.383 170.418C280.17 169.354 281.732 168.539 281.732 168.539C281.732 168.539 285.075 170.072 287.37 170.418C288.414 170.576 292.945 170.925 296.296 169.948C296.853 169.786 297.171 169.704 297.706 169.479C298.692 169.063 300.055 168.539 300.055 168.539C300.055 168.539 296.483 168.731 295.357 169.009C294.273 169.276 293.182 169.418 292.068 169.479C290.409 169.569 288.534 169.308 286.9 169.009C285.412 168.737 283.142 167.599 283.142 167.599C283.142 167.599 285.483 166.939 286.43 166.66C287.328 166.395 289.249 166.19 289.249 166.19V167.599C289.249 167.599 290.664 168.114 291.598 168.069C292.354 168.033 293.477 167.599 293.477 167.599V166.19C293.477 166.19 294.929 166.395 295.826 166.66C296.774 166.939 300.055 168.539 300.055 168.539C300.055 168.539 303.209 169.842 303.813 171.828C304.187 173.056 304.165 173.881 303.813 175.116C303.381 176.634 302.643 177.355 301.464 178.405C300.36 179.389 299.549 179.735 298.175 180.284C295.935 181.18 294.481 181.175 292.068 181.224C290.042 181.265 288.87 181.231 286.9 180.754C284.98 180.289 283.873 179.929 282.202 178.875C280.99 178.11 280.156 177.733 279.383 176.526C278.568 175.251 278.239 174.266 278.444 172.767C278.577 171.788 278.796 171.213 279.383 170.418Z" fill="#00032D"/>
<path d="M322.605 106.995V106.055L324.954 107.464L327.303 105.115V106.055L324.954 108.404L322.605 106.995Z" fill="#00032D"/>
<path d="M305.692 95.7194V94.7798L306.867 95.4845L308.041 96.1892L310.39 93.8402V94.7798L308.041 97.1288L305.692 95.7194Z" fill="#00032D"/>
<path d="M311.8 80.2159L313.209 81.1555C313.209 81.1555 312.269 81.7533 311.8 82.0951C311.265 82.4847 310.86 83.0347 310.86 83.0347" stroke="black" stroke-width="0.2"/>
<path d="M316.466 86.2154L318.07 86.7616C318.07 86.7616 317.314 87.581 316.949 88.0316C316.532 88.5455 316.282 89.181 316.282 89.181" stroke="black" stroke-width="0.2"/>
<path d="M321.666 92.9006L323.075 93.3704L322.605 94.31L322.37 95.0147V95.6014" stroke="black" stroke-width="0.2"/>
<g clip-path="url(#clip0_315_3)">
<path d="M318.459 83.32L318.913 82.9393L318.744 82.342L319.293 82.6748L319.813 82.3817L319.701 82.9677L320.191 83.3829L319.57 83.4123L319.354 83.9639L319.084 83.3945L318.459 83.32Z" fill="black"/>
</g>
<path d="M327.336 122.202L327.72 122.585L328.182 122.174L327.997 122.926L328.321 123.417L327.823 123.5L327.562 124.214L327.438 123.512L326.952 123.464L327.375 122.948L327.336 122.202Z" fill="black"/>
<g clip-path="url(#clip1_315_3)">
<path d="M326.887 93.486L327.272 93.786L327.733 93.4641L327.549 94.0528L327.872 94.4369L327.375 94.5023L327.113 95.061L326.99 94.5118L326.504 94.4739L326.927 94.0697L326.887 93.486Z" fill="black"/>
</g>
<g clip-path="url(#clip2_315_3)">
<path d="M303.401 84.3116L303.732 83.8198L303.404 83.2929L304.024 83.46L304.442 83.034L304.496 83.6283L305.082 83.8911L304.495 84.0916L304.44 84.6816L304.023 84.2095L303.401 84.3116Z" fill="black"/>
</g>
<circle cx="305.927" cy="78.1017" r="0.704706" fill="#30CBFC"/>
<circle cx="310.625" cy="87.4978" r="0.704706" fill="#30CBFC"/>
<ellipse cx="316.973" cy="92.4332" rx="0.939608" ry="0.469804" transform="rotate(-89.7 316.973 92.4332)" fill="#30CBFC"/>
<ellipse cx="324.934" cy="86.8941" rx="0.939608" ry="0.469804" transform="rotate(-55.5588 324.934 86.8941)" fill="#30CBFC"/>
<ellipse cx="329.632" cy="90.6525" rx="0.939608" ry="0.469804" transform="rotate(-55.5588 329.632 90.6525)" fill="#30CBFC"/>
<path d="M292.068 170.418V169.479C292.068 169.479 294.106 169.353 295.357 169.009C296.704 168.638 298.645 167.599 298.645 167.599L300.055 168.539L292.068 170.418Z" fill="#027027"/>
<path d="M375.693 110.753L344.216 92.9006V102.766L347.505 104.646L345.626 106.995L344.216 109.344L343.277 113.102C343.277 113.102 342.527 115.859 343.277 117.33C343.927 118.607 345.626 119.679 345.626 119.679L337.639 127.666L369.116 145.988L372.874 143.17L374.284 135.183L371.465 131.894V126.726L372.874 123.908L375.693 120.619V110.753Z" fill="#D8D8D8"/>
<path d="M339.988 143.17V132.364L342.337 133.774V142.7L370.525 159.143V150.686L369.116 149.747L372.874 147.868V162.432L374.753 163.841L368.646 167.599L336.23 148.337L342.337 144.579L339.988 143.17Z" fill="#D8D8D8"/>
<path d="M335.76 149.277V152.566C335.76 152.566 334.613 152.528 333.881 152.566C332.585 152.632 331.829 152.643 330.592 153.035C329.419 153.407 327.773 154.445 327.773 154.445L310.39 144.579L308.041 145.988L328.713 158.203L332.471 165.25L333.411 174.177L333.541 174.104L350.324 164.781L350.793 161.492L368.176 171.828V169.009L335.76 149.277Z" fill="#D8D8D8"/>
<path d="M347.505 236.661L380.391 207.533L346.565 187.801V175.116L331.531 183.573L325.424 180.284L300.524 200.955L347.505 236.661Z" fill="#D8D8D8"/>
<path d="M346.565 90.0817V83.0347C346.565 83.0347 355.449 84.4901 360.659 86.7931C369.255 90.5927 379.452 101.827 379.452 101.827V109.344L346.565 90.0817Z" fill="#D8D8D8"/>
<path d="M387.908 118.74V137.532H388.848V118.74H387.908Z" fill="#D8D8D8"/>
<path d="M346.565 90.0817L344.216 92.9006L375.693 110.753L378.982 109.814V108.874L346.565 90.0817Z" fill="#FAB42F"/>
<path d="M345.626 100.887V95.2496L374.284 111.223V117.8L345.626 100.887Z" fill="#FAB42F"/>
<path d="M337.639 130.955V127.666L369.116 145.988L372.874 143.17V147.868L369.116 149.747L337.639 130.955Z" fill="#FAB42F"/>
<path d="M336.23 148.337L335.76 149.277L368.176 169.009L368.646 167.599L336.23 148.337Z" fill="#FAB42F"/>
<path d="M333.88 179.814L350.324 169.479C350.324 169.479 351.295 168.534 351.263 167.599C351.224 166.44 350.324 164.781 350.324 164.781C350.324 164.781 352.077 165.507 352.673 166.66C353.352 167.974 353.612 170.888 353.612 170.888L346.565 175.116L331.531 183.573C331.531 183.573 332.001 166.19 331.062 163.841C329.897 160.93 328.713 158.203 328.713 158.203C328.713 158.203 329.175 157.468 329.652 157.264C330.158 157.047 330.592 157.264 330.592 157.264L331.531 159.613C331.531 159.613 332.735 163.111 332.941 164.311C333.594 168.112 333.411 174.177 333.411 174.177L333.88 179.814Z" fill="#FAB42F"/>
<path d="M332.941 194.848L333.881 194.378L340.458 198.137L342.337 196.727C342.337 196.727 343.61 195.439 343.746 194.378C343.895 193.227 342.807 191.559 342.807 191.559L341.867 190.62C341.867 190.62 340.747 189.725 339.988 189.21C339.103 188.61 338.641 188.175 337.639 187.801C336.763 187.474 335.29 187.331 335.29 187.331L333.881 190.15V188.741L334.35 187.331H333.881V185.922C333.881 185.922 336.526 186.265 338.109 186.861C339.26 187.296 339.893 187.605 340.928 188.271C341.916 188.906 342.512 189.258 343.277 190.15C344.453 191.522 345.501 192.672 345.156 194.378C344.893 195.675 344.3 196.599 343.277 197.667C342.361 198.622 340.458 199.546 340.458 199.546C340.458 199.546 339.405 199.963 338.109 200.486C336.655 201.072 336.827 201.589 335.29 201.895C332.765 202.399 327.773 201.895 327.773 201.895C327.773 201.895 325.397 201.101 324.015 200.486C322.104 199.634 320.978 198.916 319.786 197.197L319.735 197.123C318.968 196.016 318.453 195.273 318.377 193.908C318.303 192.575 318.636 191.769 319.317 190.62C320.179 189.165 321.156 188.674 322.605 187.801C323.802 187.08 326.364 186.392 326.364 186.392C326.364 186.392 327.779 185.974 328.713 185.922C329.079 185.901 329.652 185.922 329.652 185.922V187.331C329.652 187.331 327.739 187.567 326.834 187.801C325.71 188.091 325.061 188.24 324.015 188.741C322.821 189.311 322.128 189.681 321.196 190.62C320.549 191.271 320.077 191.629 319.786 192.499C319.496 193.369 319.786 194.848 319.786 194.848L329.652 193.439V194.378L320.726 196.257C320.726 196.257 321.723 197.59 322.605 198.137C322.954 198.353 323.17 198.44 323.545 198.606C325.749 199.588 326.663 199.926 328.713 200.016C330.737 200.105 337.639 199.076 337.639 199.076L339.048 198.606L332.941 194.848Z" fill="#FAB42F"/>
<path d="M346.565 83.0347L369.116 70.35C369.116 70.35 380.506 72.8687 386.968 77.397C392.952 81.5898 400.123 91.0213 400.123 91.0213V148.807V184.982L380.391 207.533L346.565 187.801V175.116C346.565 175.116 352.203 171.358 352.673 170.888C353.711 169.85 353.269 168.471 352.673 167.13C352.146 165.944 350.324 164.781 350.324 164.781L350.794 161.492L368.646 171.828L378.512 166.66L378.982 101.357C378.982 101.357 370.597 92.4661 363.948 88.6723C357.644 85.0754 346.565 83.0347 346.565 83.0347Z" fill="#0B065C"/>
<path d="M342.337 142.7V133.774L370.995 150.686L370.525 159.143L342.337 142.7Z" fill="#0B065C"/>
<path d="M343.694 108.509L344.216 102.766L347.505 104.646C347.505 104.646 345.542 107.084 344.686 108.874C343.935 110.444 343.277 113.102 343.277 113.102C343.277 113.102 342.527 115.859 343.277 117.33C343.927 118.607 345.626 119.679 345.626 119.679L341.867 123.438L343.694 108.509Z" fill="#0B065C"/>
<path d="M354.082 130.955L351.733 129.545L354.082 127.196L356.431 128.606L354.082 130.955Z" fill="#0B065C"/>
<path d="M359.72 134.713L357.371 133.304L359.72 130.955L362.069 132.364L359.72 134.713Z" fill="#0B065C"/>
<path d="M331.532 183.573L329.652 182.633V198.867C329.652 198.867 331.067 199.121 332.001 199.076C332.757 199.04 333.881 199.076 333.881 199.076V182.163L331.532 183.573Z" fill="#0B065C"/>
<path d="M365.357 138.472L363.008 137.062L365.357 134.713L367.706 136.123L365.357 138.472Z" fill="#0B065C"/>
<path d="M348.445 127.196L346.095 125.787L348.445 123.438L350.794 124.847L348.445 127.196Z" fill="#0B065C"/>
<path d="M348.444 89.1421V85.3837C348.444 85.3837 356.121 87.0664 360.659 89.1421C367.934 92.469 377.102 101.357 377.102 101.357V106.055L348.444 89.1421Z" fill="#002776"/>
<path d="M378.982 109.814L375.693 110.753V120.619C375.693 120.619 372.305 123.636 371.465 126.257C370.681 128.703 370.525 130.485 371.935 132.834C372.615 133.968 374.284 135.183 374.284 135.183L372.874 143.041V144.109V162.432L374.753 163.841L368.646 167.599L368.176 169.009V171.828H368.646L378.512 166.66L378.982 109.814Z" fill="#002776"/>
<path d="M370.525 117.8L368.646 116.861C368.646 116.861 366.514 118.662 365.581 120.149C364.64 121.649 364.194 122.624 363.948 124.377C363.692 126.203 364.418 129.075 364.418 129.075L366.297 130.485C366.297 130.485 365.498 127.317 365.827 125.317C366.082 123.77 366.459 122.92 367.237 121.559C368.204 119.865 370.525 117.8 370.525 117.8Z" fill="#002776"/>
<path d="M340.458 147.868L338.579 149.277L367.237 166.19L370.055 164.311L340.458 147.868Z" fill="#002776"/>
<path d="M333.88 179.814L333.411 174.177L350.793 164.781C350.793 164.781 351.299 166.484 351.263 167.599C351.233 168.534 351.154 168.814 350.793 169.479C350.233 170.511 348.444 171.358 348.444 171.358L333.88 179.814Z" fill="#002776"/>
<path d="M331.531 183.573L309.92 171.828V150.926L308.041 145.988L328.713 158.203C328.713 158.203 330.095 161.311 331.062 163.841C331.78 165.72 331.531 183.573 331.531 183.573Z" fill="#002776"/>
<path d="M365.827 114.981L363.948 114.042C363.948 114.042 361.816 115.843 360.883 117.33C359.942 118.83 359.496 119.806 359.25 121.559C358.994 123.385 359.72 126.257 359.72 126.257L361.599 127.666C361.599 127.666 360.8 124.498 361.129 122.498C361.384 120.951 361.761 120.101 362.539 118.74C363.506 117.046 365.827 114.981 365.827 114.981Z" fill="#002776"/>
<path d="M359.25 111.223L357.371 110.283C357.371 110.283 355.238 112.085 354.306 113.572C353.365 115.071 352.918 116.047 352.673 117.8C352.417 119.626 353.142 122.498 353.142 122.498L355.022 123.908C355.022 123.908 354.223 120.739 354.552 118.74C354.807 117.193 355.184 116.342 355.961 114.981C356.929 113.288 359.25 111.223 359.25 111.223Z" fill="#002776"/>
<path d="M353.612 107.464L351.733 106.525C351.733 106.525 349.601 108.326 348.668 109.814C347.727 111.313 347.281 112.289 347.035 114.042C346.779 115.868 347.505 118.74 347.505 118.74L349.384 120.149C349.384 120.149 348.585 116.981 348.914 114.981C349.169 113.435 349.546 112.584 350.324 111.223C351.291 109.529 353.612 107.464 353.612 107.464Z" fill="#002776"/>
<path d="M351.733 130.485V129.545L354.082 130.955L356.431 128.606V129.545L354.082 131.894L351.733 130.485Z" fill="#002776"/>
<path d="M357.371 134.243V133.304L359.72 134.713L362.069 132.364V133.304L359.72 135.653L357.371 134.243Z" fill="#002776"/>
<path d="M319.786 201.425C320.573 200.361 322.135 199.546 322.135 199.546C322.135 199.546 325.478 201.08 327.773 201.425C328.817 201.583 333.348 201.933 336.699 200.955C337.256 200.793 337.574 200.711 338.109 200.486C339.095 200.071 340.458 199.546 340.458 199.546C340.458 199.546 336.886 199.738 335.76 200.016C334.676 200.283 333.585 200.425 332.471 200.486C330.812 200.576 328.937 200.315 327.303 200.016C325.815 199.744 323.545 198.606 323.545 198.606C323.545 198.606 325.886 197.946 326.833 197.667C327.731 197.403 329.652 197.197 329.652 197.197V198.606C329.652 198.606 331.067 199.121 332.001 199.076C332.757 199.04 333.88 198.606 333.88 198.606V197.197C333.88 197.197 335.332 197.403 336.23 197.667C337.177 197.946 340.458 199.546 340.458 199.546C340.458 199.546 343.612 200.849 344.216 202.835C344.59 204.063 344.568 204.888 344.216 206.123C343.784 207.641 343.046 208.362 341.867 209.412C340.763 210.396 339.952 210.742 338.579 211.291C336.338 212.187 334.884 212.182 332.471 212.231C330.445 212.272 329.273 212.238 327.303 211.761C325.383 211.296 324.276 210.936 322.605 209.882C321.393 209.117 320.559 208.74 319.786 207.533C318.971 206.259 318.642 205.273 318.847 203.774C318.98 202.795 319.199 202.22 319.786 201.425Z" fill="#002776"/>
<path d="M363.008 138.002V137.062L365.357 138.472L367.706 136.123V137.062L365.357 139.411L363.008 138.002Z" fill="#002776"/>
<path d="M346.095 126.726V125.787L347.27 126.492L348.444 127.196L350.793 124.847V125.787L348.444 128.136L346.095 126.726Z" fill="#002776"/>
<path d="M352.203 111.223L353.612 112.163C353.612 112.163 352.672 112.76 352.203 113.102C351.668 113.492 351.263 114.042 351.263 114.042" stroke="black" stroke-width="0.2"/>
<path d="M356.869 117.222L358.473 117.769C358.473 117.769 357.717 118.588 357.352 119.039C356.935 119.553 356.685 120.188 356.685 120.188" stroke="black" stroke-width="0.2"/>
<path d="M362.069 123.908L363.478 124.377L363.008 125.317L362.773 126.022V126.608" stroke="black" stroke-width="0.2"/>
<g clip-path="url(#clip3_315_3)">
<path d="M358.862 114.327L359.316 113.946L359.147 113.349L359.697 113.682L360.216 113.389L360.104 113.975L360.594 114.39L359.974 114.419L359.757 114.971L359.488 114.402L358.862 114.327Z" fill="black"/>
</g>
<path d="M367.738 161.811L368.123 162.195L368.584 161.783L368.4 162.535L368.723 163.026L368.226 163.11L367.964 163.823L367.841 163.122L367.355 163.073L367.778 162.557L367.738 161.811Z" fill="black"/>
<g clip-path="url(#clip4_315_3)">
<path d="M367.29 124.493L367.675 124.793L368.136 124.471L367.952 125.06L368.275 125.444L367.778 125.509L367.516 126.068L367.393 125.519L366.907 125.481L367.33 125.077L367.29 124.493Z" fill="black"/>
</g>
<g clip-path="url(#clip5_315_3)">
<path d="M343.804 115.319L344.135 114.827L343.807 114.3L344.427 114.467L344.845 114.041L344.899 114.635L345.485 114.898L344.898 115.099L344.843 115.689L344.426 115.217L343.804 115.319Z" fill="black"/>
</g>
<circle cx="346.33" cy="109.109" r="0.704706" fill="#0B065C"/>
<circle cx="351.028" cy="118.505" r="0.704706" fill="#0B065C"/>
<ellipse cx="357.376" cy="123.44" rx="0.939608" ry="0.469804" transform="rotate(-89.7 357.376 123.44)" fill="#0B065C"/>
<ellipse cx="365.337" cy="117.901" rx="0.939608" ry="0.469804" transform="rotate(-55.5588 365.337 117.901)" fill="#0B065C"/>
<ellipse cx="370.035" cy="121.66" rx="0.939608" ry="0.469804" transform="rotate(-55.5588 370.035 121.66)" fill="#0B065C"/>
<path d="M332.471 201.425V200.486C332.471 200.486 334.509 200.36 335.76 200.016C337.107 199.645 339.048 198.606 339.048 198.606L340.458 199.546L332.471 201.425Z" fill="#FAB42F"/>
<path d="M419.855 144.579L388.378 126.726V136.592L391.666 138.472L389.787 140.821L388.378 143.17L387.438 146.928C387.438 146.928 386.689 149.685 387.438 151.156C388.089 152.433 389.787 153.505 389.787 153.505L381.801 161.492L413.277 179.814L417.036 176.995L418.445 169.009L415.626 165.72V160.552L417.036 157.733L419.855 154.445V144.579Z" fill="#D8D8D8"/>
<path d="M384.15 176.995V166.19L386.499 167.599V176.526L414.687 192.969V184.512L413.277 183.573L417.036 181.694V196.257L418.915 197.667L412.808 201.425L380.391 182.163L386.499 178.405L384.15 176.995Z" fill="#D8D8D8"/>
<path d="M379.921 183.103V186.392C379.921 186.392 378.775 186.354 378.042 186.392C376.747 186.458 375.99 186.469 374.753 186.861C373.58 187.233 371.935 188.271 371.935 188.271L354.552 178.405L352.203 179.814L372.874 192.029L376.633 199.076L377.572 208.003L377.703 207.93L394.485 198.606L394.955 195.318L412.338 205.654V202.835L379.921 183.103Z" fill="#D8D8D8"/>
<path d="M391.666 270.486L424.553 241.359L390.727 221.627V208.942L375.693 217.399L369.586 214.11L344.686 234.781L391.666 270.486Z" fill="#D8D8D8"/>
<path d="M390.727 123.908V116.861C390.727 116.861 399.611 118.316 404.821 120.619C413.417 124.419 423.613 135.653 423.613 135.653V143.17L390.727 123.908Z" fill="#D8D8D8"/>
<path d="M432.07 152.566V171.358H433.009V152.566H432.07Z" fill="#D8D8D8"/>
<path d="M390.727 123.908L388.378 126.726L419.855 144.579L423.143 143.639V142.7L390.727 123.908Z" fill="#FAB42F"/>
<path d="M389.787 134.713V129.075L418.445 145.049V151.626L389.787 134.713Z" fill="#FAB42F"/>
<path d="M381.801 164.781V161.492L413.277 179.814L417.036 176.995V181.694L413.277 183.573L381.801 164.781Z" fill="#FAB42F"/>
<path d="M380.391 182.163L379.921 183.103L412.338 202.835L412.808 201.425L380.391 182.163Z" fill="#FAB42F"/>
<path d="M378.042 213.64L394.485 203.304C394.485 203.304 395.456 202.36 395.425 201.425C395.386 200.266 394.485 198.606 394.485 198.606C394.485 198.606 396.238 199.333 396.834 200.486C397.514 201.8 397.774 204.714 397.774 204.714L390.727 208.942L375.693 217.399C375.693 217.399 376.163 200.016 375.223 197.667C374.059 194.756 372.874 192.029 372.874 192.029C372.874 192.029 373.337 191.294 373.814 191.09C374.32 190.873 374.753 191.09 374.753 191.09L375.693 193.439C375.693 193.439 376.896 196.936 377.103 198.137C377.756 201.938 377.572 208.003 377.572 208.003L378.042 213.64Z" fill="#FAB42F"/>
<path d="M377.103 228.674L378.042 228.204L384.619 231.963L386.499 230.553C386.499 230.553 387.772 229.265 387.908 228.204C388.056 227.053 386.968 225.385 386.968 225.385L386.029 224.446C386.029 224.446 384.909 223.551 384.15 223.036C383.264 222.436 382.803 222.001 381.801 221.627C380.924 221.3 379.452 221.157 379.452 221.157L378.042 223.976V222.566L378.512 221.157H378.042V219.748C378.042 219.748 380.688 220.09 382.27 220.687C383.422 221.121 384.054 221.431 385.089 222.097C386.077 222.732 386.674 223.084 387.438 223.976C388.614 225.348 389.663 226.498 389.317 228.204C389.055 229.501 388.462 230.425 387.438 231.493C386.523 232.448 384.619 233.372 384.619 233.372C384.619 233.372 383.566 233.789 382.27 234.312C380.817 234.898 380.989 235.414 379.452 235.721C376.926 236.224 371.935 235.721 371.935 235.721C371.935 235.721 369.558 234.927 368.176 234.312C366.265 233.46 365.14 232.742 363.948 231.023L363.897 230.949C363.129 229.842 362.614 229.099 362.539 227.734C362.465 226.401 362.797 225.595 363.478 224.446C364.341 222.99 365.318 222.5 366.767 221.627C367.964 220.906 370.525 220.217 370.525 220.217C370.525 220.217 371.94 219.8 372.874 219.748C373.241 219.727 373.814 219.748 373.814 219.748V221.157C373.814 221.157 371.901 221.393 370.995 221.627C369.872 221.917 369.223 222.066 368.176 222.566C366.983 223.137 366.29 223.507 365.357 224.446C364.711 225.096 364.238 225.455 363.948 226.325C363.658 227.195 363.948 228.674 363.948 228.674L373.814 227.264V228.204L364.888 230.083C364.888 230.083 365.884 231.416 366.767 231.963C367.116 232.178 367.332 232.265 367.707 232.432C369.911 233.414 370.825 233.752 372.874 233.842C374.899 233.93 381.801 232.902 381.801 232.902L383.21 232.432L377.103 228.674Z" fill="#FAB42F"/>
<path d="M390.727 116.861L413.278 104.176C413.278 104.176 424.667 106.695 431.13 111.223C437.114 115.416 444.285 124.847 444.285 124.847V182.633V218.808L424.553 241.359L390.727 221.627V208.942C390.727 208.942 396.365 205.184 396.834 204.714C397.872 203.676 397.43 202.297 396.834 200.955C396.307 199.77 394.485 198.606 394.485 198.606L394.955 195.318L412.808 205.654L422.674 200.486L423.143 135.183C423.143 135.183 414.759 126.292 408.11 122.498C401.806 118.901 390.727 116.861 390.727 116.861Z" fill="#FAB42F"/>
<path d="M386.499 176.526V167.599L415.157 184.512L414.687 192.969L386.499 176.526Z" fill="#FAB42F"/>
<path d="M387.856 142.335L388.378 136.592L391.667 138.472C391.667 138.472 389.704 140.909 388.848 142.7C388.097 144.27 387.438 146.928 387.438 146.928C387.438 146.928 386.689 149.685 387.438 151.156C388.089 152.433 389.787 153.505 389.787 153.505L386.029 157.264L387.856 142.335Z" fill="#FAB42F"/>
<path d="M398.244 164.781L395.895 163.371L398.244 161.022L400.593 162.432L398.244 164.781Z" fill="#FAB42F"/>
<path d="M403.881 168.539L401.532 167.13L403.881 164.781L406.23 166.19L403.881 168.539Z" fill="#FAB42F"/>
<path d="M375.693 217.399L373.814 216.459V232.692C373.814 232.692 375.229 232.947 376.163 232.902C376.919 232.866 378.042 232.902 378.042 232.902V215.989L375.693 217.399Z" fill="#FAB42F"/>
<path d="M409.519 172.297L407.17 170.888L409.519 168.539L411.868 169.948L409.519 172.297Z" fill="#FAB42F"/>
<path d="M392.606 161.022L390.257 159.613L392.606 157.264L394.955 158.673L392.606 161.022Z" fill="#FAB42F"/>
<path d="M392.606 122.968V119.21C392.606 119.21 400.282 120.892 404.821 122.968C412.096 126.295 421.264 135.183 421.264 135.183V139.881L392.606 122.968Z" fill="#027027"/>
<path d="M423.143 143.639L419.855 144.579V154.445C419.855 154.445 416.467 157.462 415.626 160.083C414.842 162.528 414.687 164.311 416.096 166.66C416.777 167.794 418.445 169.009 418.445 169.009L417.036 176.866V177.935V196.257L418.915 197.667L412.808 201.425L412.338 202.835V205.654H412.808L422.673 200.486L423.143 143.639Z" fill="#027027"/>
<path d="M414.687 151.626L412.808 150.686C412.808 150.686 410.675 152.488 409.742 153.975C408.802 155.475 408.355 156.45 408.11 158.203C407.854 160.029 408.579 162.901 408.579 162.901L410.459 164.311C410.459 164.311 409.659 161.142 409.989 159.143C410.244 157.596 410.621 156.746 411.398 155.384C412.366 153.691 414.687 151.626 414.687 151.626Z" fill="#027027"/>
<path d="M384.619 181.694L382.74 183.103L411.398 200.016L414.217 198.137L384.619 181.694Z" fill="#027027"/>
<path d="M378.042 213.64L377.572 208.003L394.955 198.606C394.955 198.606 395.461 200.31 395.425 201.425C395.395 202.36 395.316 202.64 394.955 203.304C394.394 204.337 392.606 205.184 392.606 205.184L378.042 213.64Z" fill="#027027"/>
<path d="M375.693 217.399L354.082 205.654V184.752L352.203 179.814L372.874 192.029C372.874 192.029 374.256 195.136 375.223 197.667C375.941 199.546 375.693 217.399 375.693 217.399Z" fill="#027027"/>
<path d="M409.989 148.807L408.11 147.868C408.11 147.868 405.977 149.669 405.044 151.156C404.104 152.656 403.657 153.632 403.412 155.384C403.155 157.21 403.881 160.083 403.881 160.083L405.761 161.492C405.761 161.492 404.961 158.324 405.291 156.324C405.545 154.777 405.923 153.927 406.7 152.566C407.668 150.872 409.989 148.807 409.989 148.807Z" fill="#027027"/>
<path d="M403.412 145.049L401.532 144.109C401.532 144.109 399.4 145.911 398.467 147.398C397.527 148.897 397.08 149.873 396.834 151.626C396.578 153.452 397.304 156.324 397.304 156.324L399.183 157.733C399.183 157.733 398.384 154.565 398.713 152.566C398.968 151.019 399.345 150.168 400.123 148.807C401.09 147.114 403.412 145.049 403.412 145.049Z" fill="#027027"/>
<path d="M397.774 141.29L395.895 140.351C395.895 140.351 393.762 142.152 392.83 143.639C391.889 145.139 391.442 146.115 391.197 147.868C390.941 149.694 391.666 152.566 391.666 152.566L393.546 153.975C393.546 153.975 392.747 150.807 393.076 148.807C393.331 147.26 393.708 146.41 394.485 145.049C395.453 143.355 397.774 141.29 397.774 141.29Z" fill="#027027"/>
<path d="M395.895 164.311V163.371L398.244 164.781L400.593 162.432V163.371L398.244 165.72L395.895 164.311Z" fill="#027027"/>
<path d="M401.532 168.069V167.13L403.881 168.539L406.23 166.19V167.13L403.881 169.479L401.532 168.069Z" fill="#027027"/>
<path d="M363.948 235.251C364.735 234.187 366.297 233.372 366.297 233.372C366.297 233.372 369.64 234.905 371.935 235.251C372.978 235.408 377.51 235.758 380.861 234.781C381.418 234.619 381.736 234.537 382.27 234.312C383.256 233.896 384.619 233.372 384.619 233.372C384.619 233.372 381.048 233.564 379.921 233.842C378.838 234.109 377.747 234.251 376.633 234.312C374.974 234.402 373.099 234.141 371.465 233.842C369.977 233.569 367.706 232.432 367.706 232.432C367.706 232.432 370.047 231.772 370.995 231.493C371.892 231.228 373.814 231.023 373.814 231.023V232.432C373.814 232.432 375.228 232.947 376.163 232.902C376.919 232.866 378.042 232.432 378.042 232.432V231.023C378.042 231.023 379.494 231.228 380.391 231.493C381.339 231.772 384.619 233.372 384.619 233.372C384.619 233.372 387.773 234.675 388.378 236.661C388.752 237.889 388.729 238.714 388.378 239.949C387.946 241.467 387.207 242.188 386.029 243.238C384.924 244.222 384.114 244.568 382.74 245.117C380.499 246.013 379.045 246.008 376.633 246.057C374.607 246.098 373.434 246.063 371.465 245.587C369.544 245.122 368.438 244.762 366.767 243.708C365.555 242.943 364.72 242.565 363.948 241.359C363.132 240.084 362.804 239.099 363.008 237.6C363.142 236.621 363.361 236.046 363.948 235.251Z" fill="#027027"/>
<path d="M407.17 171.828V170.888L409.519 172.297L411.868 169.948V170.888L409.519 173.237L407.17 171.828Z" fill="#027027"/>
<path d="M390.257 160.552V159.613L391.432 160.317L392.606 161.022L394.955 158.673V159.613L392.606 161.962L390.257 160.552Z" fill="#027027"/>
<path d="M396.364 145.049L397.774 145.988C397.774 145.988 396.833 146.586 396.364 146.928C395.83 147.318 395.425 147.868 395.425 147.868" stroke="black" stroke-width="0.2"/>
<path d="M401.031 151.048L402.635 151.595C402.635 151.595 401.879 152.414 401.514 152.865C401.097 153.378 400.847 154.014 400.847 154.014" stroke="black" stroke-width="0.2"/>
<path d="M406.23 157.733L407.64 158.203L407.17 159.143L406.935 159.848V160.434" stroke="black" stroke-width="0.2"/>
<g clip-path="url(#clip6_315_3)">
<path d="M403.024 148.153L403.478 147.772L403.309 147.175L403.858 147.508L404.378 147.215L404.266 147.801L404.756 148.216L404.135 148.245L403.919 148.797L403.649 148.227L403.024 148.153Z" fill="black"/>
</g>
<path d="M411.9 205.021L412.284 205.405L412.746 204.993L412.562 205.746L412.885 206.236L412.387 206.32L412.126 207.033L412.003 206.332L411.516 206.283L411.939 205.767L411.9 205.021Z" fill="black"/>
<g clip-path="url(#clip7_315_3)">
<path d="M411.452 158.319L411.836 158.619L412.298 158.297L412.114 158.886L412.437 159.27L411.939 159.335L411.678 159.894L411.555 159.345L411.069 159.307L411.491 158.903L411.452 158.319Z" fill="black"/>
</g>
<g clip-path="url(#clip8_315_3)">
<path d="M387.966 149.145L388.297 148.653L387.968 148.126L388.589 148.293L389.007 147.867L389.061 148.461L389.647 148.724L389.06 148.925L389.005 149.515L388.588 149.042L387.966 149.145Z" fill="black"/>
</g>
<circle cx="390.492" cy="142.935" r="0.704706" fill="#FAB42F"/>
<circle cx="395.19" cy="152.331" r="0.704706" fill="#FAB42F"/>
<ellipse cx="401.537" cy="157.266" rx="0.939608" ry="0.469804" transform="rotate(-89.7 401.537 157.266)" fill="#FAB42F"/>
<ellipse cx="409.498" cy="151.727" rx="0.939608" ry="0.469804" transform="rotate(-55.5588 409.498 151.727)" fill="#FAB42F"/>
<ellipse cx="414.196" cy="155.485" rx="0.939608" ry="0.469804" transform="rotate(-55.5588 414.196 155.485)" fill="#FAB42F"/>
<path d="M376.633 235.251V234.312C376.633 234.312 378.671 234.186 379.921 233.842C381.269 233.471 383.21 232.432 383.21 232.432L384.619 233.372L376.633 235.251Z" fill="#FAB42F"/>
<rect x="451.064" y="221.434" width="589.752" height="8.05798" transform="rotate(139.103 451.064 221.434)" fill="#FAB42F"/>
<rect x="32.3975" y="-6" width="553.982" height="8.05798" transform="rotate(37.5616 32.3975 -6)" fill="#FAB42F"/>
<defs>
<clipPath id="clip0_315_3">
<rect width="2.82976" height="2.59403" fill="white" transform="translate(318.953 81.1555) rotate(35.7425)"/>
</clipPath>
<clipPath id="clip1_315_3">
<rect width="2.72011" height="2.1089" fill="white" transform="translate(328.844 93.1942) rotate(111.224)"/>
</clipPath>
<clipPath id="clip2_315_3">
<rect width="2.82976" height="2.59403" fill="white" transform="translate(303.275 82.0951) rotate(19.6172)"/>
</clipPath>
<clipPath id="clip3_315_3">
<rect width="2.82976" height="2.59403" fill="white" transform="translate(359.356 112.163) rotate(35.7425)"/>
</clipPath>
<clipPath id="clip4_315_3">
<rect width="2.72011" height="2.1089" fill="white" transform="translate(369.248 124.201) rotate(111.224)"/>
</clipPath>
<clipPath id="clip5_315_3">
<rect width="2.82976" height="2.59403" fill="white" transform="translate(343.678 113.102) rotate(19.6172)"/>
</clipPath>
<clipPath id="clip6_315_3">
<rect width="2.82976" height="2.59403" fill="white" transform="translate(403.518 145.988) rotate(35.7425)"/>
</clipPath>
<clipPath id="clip7_315_3">
<rect width="2.72011" height="2.1089" fill="white" transform="translate(413.409 158.027) rotate(111.224)"/>
</clipPath>
<clipPath id="clip8_315_3">
<rect width="2.82976" height="2.59403" fill="white" transform="translate(387.839 146.928) rotate(19.6172)"/>
</clipPath>
</defs>
</svg>
