<svg width="1440" height="1435" viewBox="0 0 1440 1435" fill="none" xmlns="http://www.w3.org/2000/svg">
<path d="M981.242 107.96L912.399 68.652V90.3747L919.592 94.5124L915.482 99.6845L912.399 104.857L910.344 113.132C910.344 113.132 908.705 119.202 910.344 122.442C911.767 125.253 915.482 127.614 915.482 127.614L898.014 145.199L966.857 185.541L975.077 179.335L978.159 161.749L971.994 154.509V143.13L975.077 136.923L981.242 129.683V107.96Z" fill="#D8D8D8"/>
<path d="M903.152 179.335V155.543L908.289 158.646V178.3L969.939 214.505V195.885L966.857 193.816L975.077 189.679V221.746L979.187 224.849L965.829 233.124L894.932 190.713L908.289 182.438L903.152 179.335Z" fill="#D8D8D8"/>
<path d="M893.904 192.782V200.023C893.904 200.023 891.397 199.94 889.794 200.023C886.961 200.169 885.307 200.194 882.602 201.057C880.036 201.876 876.437 204.161 876.437 204.161L838.419 182.438L833.282 185.541L878.492 212.436L886.712 227.952L888.767 247.606L889.052 247.446L925.757 226.918L926.784 219.677L964.802 242.434V236.227L893.904 192.782Z" fill="#D8D8D8"/>
<path d="M919.592 385.184L991.517 321.05L917.537 277.604V249.675L884.657 268.294L871.299 261.053L807 300.831L919.592 385.184Z" fill="#D8D8D8"/>
<path d="M917.537 62.4455V46.9292C917.537 46.9292 936.967 50.1338 948.362 55.2046C967.162 63.5705 989.462 88.3059 989.462 88.3059V104.857L917.537 62.4455Z" fill="#D8D8D8"/>
<path d="M1007.96 125.545V166.922H1010.01V125.545H1007.96Z" fill="#D8D8D8"/>
<path d="M981.242 107.96L912.399 68.652V90.3747L919.592 94.5124L915.482 99.6845L912.399 104.857L910.344 113.132C910.344 113.132 908.705 119.202 910.344 122.442C911.767 125.253 915.482 127.614 915.482 127.614L898.014 145.199L966.857 185.541L975.077 179.335L978.159 161.749L971.994 154.509V143.13L975.077 136.923L981.242 129.683V107.96Z" stroke="black" stroke-width="0.2"/>
<path d="M903.152 179.335V155.543L908.289 158.646V178.3L969.939 214.505V195.885L966.857 193.816L975.077 189.679V221.746L979.187 224.849L965.829 233.124L894.932 190.713L908.289 182.438L903.152 179.335Z" stroke="black" stroke-width="0.2"/>
<path d="M893.904 192.782V200.023C893.904 200.023 891.397 199.94 889.794 200.023C886.961 200.169 885.307 200.194 882.602 201.057C880.036 201.876 876.437 204.161 876.437 204.161L838.419 182.438L833.282 185.541L878.492 212.436L886.712 227.952L888.767 247.606L889.052 247.446L925.757 226.918L926.784 219.677L964.802 242.434V236.227L893.904 192.782Z" stroke="black" stroke-width="0.2"/>
<path d="M919.592 385.184L991.517 321.05L917.537 277.604V249.675L884.657 268.294L871.299 261.053L807 300.831L919.592 385.184Z" stroke="black" stroke-width="0.2"/>
<path d="M917.537 62.4455V46.9292C917.537 46.9292 936.967 50.1338 948.362 55.2046C967.162 63.5705 989.462 88.3059 989.462 88.3059V104.857L917.537 62.4455Z" stroke="black" stroke-width="0.2"/>
<path d="M1007.96 125.545V166.922H1010.01V125.545H1007.96Z" stroke="black" stroke-width="0.2"/>
<path d="M917.537 62.4455L912.399 68.652L981.242 107.96L988.434 105.891V103.822L917.537 62.4455Z" fill="#027027"/>
<path d="M915.482 86.2371V73.8241L978.159 108.994V123.476L915.482 86.2371Z" fill="#027027"/>
<path d="M898.014 152.44V145.199L966.857 185.541L975.077 179.335V189.679L966.857 193.816L898.014 152.44Z" fill="#027027"/>
<path d="M894.932 190.713L893.904 192.782L964.802 236.228L965.829 233.124L894.932 190.713Z" fill="#027027"/>
<path d="M889.794 260.019L925.757 237.262C925.757 237.262 927.881 235.183 927.812 233.124C927.726 230.571 925.757 226.918 925.757 226.918C925.757 226.918 929.591 228.518 930.894 231.055C932.381 233.948 932.949 240.365 932.949 240.365L917.537 249.675L884.657 268.294C884.657 268.294 885.684 230.021 883.629 224.849C881.083 218.44 878.492 212.436 878.492 212.436C878.492 212.436 879.504 210.817 880.547 210.367C881.653 209.89 882.602 210.367 882.602 210.367L884.657 215.539C884.657 215.539 887.288 223.241 887.739 225.883C889.168 234.254 888.767 247.606 888.767 247.606L889.794 260.019Z" fill="#027027"/>
<path d="M887.74 293.12L889.795 292.086L904.179 300.361L908.289 297.258C908.289 297.258 911.073 294.422 911.372 292.086C911.696 289.552 909.317 285.88 909.317 285.88L907.262 283.811C907.262 283.811 904.812 281.841 903.152 280.707C901.216 279.385 900.206 278.428 898.015 277.604C896.098 276.884 892.877 276.57 892.877 276.57L889.795 282.776V279.673L890.822 276.57H889.795V273.467C889.795 273.467 895.58 274.221 899.042 275.535C901.561 276.491 902.943 277.172 905.207 278.639C907.368 280.038 908.672 280.813 910.344 282.776C912.917 285.797 915.21 288.33 914.454 292.086C913.881 294.941 912.583 296.976 910.344 299.327C908.342 301.43 904.179 303.465 904.179 303.465C904.179 303.465 901.876 304.383 899.042 305.533C895.862 306.824 896.239 307.962 892.877 308.637C887.354 309.745 876.437 308.637 876.437 308.637C876.437 308.637 871.24 306.889 868.217 305.533C864.038 303.659 861.576 302.078 858.97 298.293L858.857 298.129C857.179 295.692 856.052 294.057 855.887 291.052C855.726 288.115 856.453 286.341 857.942 283.811C859.828 280.607 861.966 279.526 865.135 277.604C867.752 276.017 873.355 274.501 873.355 274.501C873.355 274.501 876.449 273.581 878.492 273.467C879.293 273.422 880.547 273.467 880.547 273.467V276.57C880.547 276.57 876.363 277.089 874.382 277.604C871.925 278.243 870.507 278.571 868.217 279.673C865.607 280.93 864.091 281.744 862.052 283.811C860.638 285.244 859.604 286.032 858.97 287.948C858.335 289.865 858.97 293.12 858.97 293.12L880.547 290.017V292.086L861.025 296.224C861.025 296.224 863.205 299.159 865.135 300.361C865.897 300.837 866.37 301.028 867.19 301.396C872.011 303.557 874.01 304.301 878.492 304.499C882.92 304.694 898.015 302.43 898.015 302.43L901.097 301.396L887.74 293.12Z" fill="#027027"/>
<path d="M917.537 46.9293L966.857 19C966.857 19 991.767 24.5458 1005.9 34.5163C1018.99 43.7479 1034.67 64.5143 1034.67 64.5143V191.748V271.398L991.517 321.05L917.537 277.604V249.675C917.537 249.675 929.867 241.4 930.895 240.365C933.164 238.08 932.198 235.043 930.895 232.09C929.742 229.48 925.757 226.918 925.757 226.918L926.785 219.677L965.829 242.434L987.407 231.055L988.434 87.2715C988.434 87.2715 970.097 67.6955 955.554 59.3423C941.767 51.4225 917.537 46.9293 917.537 46.9293Z" fill="#33CEFF"/>
<path d="M908.29 178.3V158.646L970.967 195.885L969.939 214.505L908.29 178.3Z" fill="#33CEFF"/>
<path d="M911.258 103.018L912.4 90.3747L919.592 94.5124C919.592 94.5124 915.3 99.8802 913.427 103.822C911.785 107.279 910.345 113.132 910.345 113.132C910.345 113.132 908.705 119.202 910.345 122.442C911.767 125.253 915.482 127.614 915.482 127.614L907.262 135.889L911.258 103.018Z" fill="#33CEFF"/>
<path d="M933.977 152.44L928.84 149.337L933.977 144.164L939.115 147.268L933.977 152.44Z" fill="#33CEFF"/>
<path d="M946.307 160.715L941.17 157.612L946.307 152.44L951.444 155.543L946.307 160.715Z" fill="#33CEFF"/>
<path d="M884.657 268.294L880.547 266.226V301.968C880.547 301.968 883.641 302.528 885.685 302.43C887.337 302.351 889.795 302.43 889.795 302.43V265.191L884.657 268.294Z" fill="#33CEFF"/>
<path d="M958.637 168.99L953.499 165.887L958.637 160.715L963.774 163.818L958.637 168.99Z" fill="#33CEFF"/>
<path d="M921.647 144.164L916.51 141.061L921.647 135.889L926.785 138.992L921.647 144.164Z" fill="#33CEFF"/>
<path d="M921.647 60.3767V52.1013C921.647 52.1013 938.435 55.8064 948.362 60.3767C964.272 67.7018 984.324 87.2715 984.324 87.2715V97.6157L921.647 60.3767Z" fill="#00032D"/>
<path d="M988.434 105.891L981.242 107.96V129.683C981.242 129.683 973.832 136.325 971.994 142.096C970.279 147.481 969.939 151.405 973.022 156.577C974.51 159.075 978.159 161.75 978.159 161.75L975.077 179.05V181.403V221.746L979.187 224.849L965.829 233.124L964.802 236.228V242.434H965.829L987.407 231.055L988.434 105.891Z" fill="#00032D"/>
<path d="M969.939 123.476L965.829 121.407C965.829 121.407 961.166 125.373 959.126 128.648C957.069 131.95 956.092 134.098 955.554 137.958C954.994 141.978 956.582 148.302 956.582 148.302L960.692 151.405C960.692 151.405 958.944 144.429 959.664 140.027C960.221 136.621 961.046 134.748 962.747 131.751C964.863 128.023 969.939 123.476 969.939 123.476Z" fill="#00032D"/>
<path d="M904.179 189.679L900.069 192.782L962.747 230.021L968.912 225.883L904.179 189.679Z" fill="#00032D"/>
<path d="M889.794 260.019L888.767 247.606L926.784 226.918C926.784 226.918 927.891 230.668 927.812 233.124C927.746 235.183 927.574 235.798 926.784 237.262C925.558 239.535 921.647 241.4 921.647 241.4L889.794 260.019Z" fill="#00032D"/>
<path d="M884.657 268.294L837.392 242.434V196.413L833.282 185.541L878.492 212.436C878.492 212.436 881.514 219.277 883.629 224.849C885.2 228.987 884.657 268.294 884.657 268.294Z" fill="#00032D"/>
<path d="M959.664 117.27L955.554 115.201C955.554 115.201 950.891 119.167 948.851 122.442C946.794 125.743 945.817 127.892 945.279 131.751C944.719 135.772 946.307 142.096 946.307 142.096L950.417 145.199C950.417 145.199 948.669 138.223 949.389 133.82C949.946 130.415 950.771 128.542 952.472 125.545C954.588 121.816 959.664 117.27 959.664 117.27Z" fill="#00032D"/>
<path d="M945.279 108.994L941.169 106.925C941.169 106.925 936.506 110.892 934.466 114.166C932.409 117.468 931.432 119.616 930.894 123.476C930.334 127.497 931.922 133.82 931.922 133.82L936.032 136.924C936.032 136.924 934.284 129.948 935.004 125.545C935.561 122.139 936.386 120.267 938.087 117.27C940.203 113.541 945.279 108.994 945.279 108.994Z" fill="#00032D"/>
<path d="M932.949 100.719L928.839 98.6501C928.839 98.6501 924.176 102.616 922.136 105.891C920.079 109.193 919.102 111.341 918.564 115.201C918.004 119.221 919.592 125.545 919.592 125.545L923.702 128.648C923.702 128.648 921.954 121.672 922.674 117.27C923.231 113.864 924.056 111.991 925.757 108.994C927.873 105.266 932.949 100.719 932.949 100.719Z" fill="#00032D"/>
<path d="M928.839 151.405V149.337L933.977 152.44L939.114 147.268V149.337L933.977 154.509L928.839 151.405Z" fill="#00032D"/>
<path d="M941.169 159.681V157.612L946.307 160.715L951.444 155.543V157.612L946.307 162.784L941.169 159.681Z" fill="#00032D"/>
<path d="M858.969 307.602C860.69 305.26 864.107 303.465 864.107 303.465C864.107 303.465 871.418 306.841 876.437 307.602C878.719 307.949 888.63 308.719 895.959 306.568C897.178 306.21 897.872 306.029 899.042 305.533C901.198 304.619 904.179 303.465 904.179 303.465C904.179 303.465 896.368 303.887 893.904 304.499C891.535 305.088 889.149 305.4 886.712 305.533C883.084 305.733 878.984 305.157 875.409 304.499C872.155 303.899 867.189 301.396 867.189 301.396C867.189 301.396 872.309 299.942 874.382 299.327C876.345 298.745 880.547 298.292 880.547 298.292V301.396C880.547 301.396 883.641 302.528 885.684 302.43C887.337 302.351 889.794 301.396 889.794 301.396V298.292C889.794 298.292 892.969 298.745 894.932 299.327C897.005 299.942 904.179 303.465 904.179 303.465C904.179 303.465 911.078 306.333 912.399 310.705C913.217 313.411 913.168 315.227 912.399 317.946C911.455 321.289 909.839 322.876 907.262 325.187C904.846 327.354 903.073 328.116 900.069 329.325C895.169 331.298 891.989 331.286 886.712 331.394C882.281 331.485 879.717 331.409 875.409 330.359C871.209 329.336 868.789 328.543 865.134 326.222C862.484 324.538 860.659 323.707 858.969 321.05C857.186 318.244 856.467 316.075 856.914 312.774C857.206 310.619 857.685 309.351 858.969 307.602Z" fill="#00032D"/>
<path d="M953.499 167.956V165.887L958.637 168.99L963.774 163.818V165.887L958.637 171.059L953.499 167.956Z" fill="#00032D"/>
<path d="M916.509 143.13V141.061L919.078 142.613L921.647 144.164L926.784 138.992V141.061L921.647 146.233L916.509 143.13Z" fill="#00032D"/>
<path d="M929.867 108.994L932.949 111.063C932.949 111.063 930.892 112.38 929.867 113.132C928.697 113.99 927.812 115.201 927.812 115.201" stroke="black" stroke-width="0.2"/>
<path d="M940.073 122.204L943.58 123.407C943.58 123.407 941.928 125.211 941.128 126.203C940.217 127.334 939.67 128.734 939.67 128.734" stroke="black" stroke-width="0.2"/>
<path d="M951.444 136.923L954.527 137.958L953.499 140.027L952.986 141.578V142.87" stroke="black" stroke-width="0.2"/>
<g clip-path="url(#clip0_310_2)">
<path d="M944.431 115.829L945.424 114.991L945.054 113.676L946.256 114.408L947.393 113.763L947.146 115.053L948.218 115.968L946.862 116.032L946.388 117.247L945.799 115.993L944.431 115.829Z" fill="black"/>
</g>
<g clip-path="url(#clip1_310_2)">
<path d="M962.864 138.213L963.705 138.873L964.715 138.164L964.312 139.461L965.018 140.306L963.93 140.45L963.359 141.68L963.089 140.471L962.026 140.388L962.95 139.498L962.864 138.213Z" fill="black"/>
</g>
<path d="M911.499 118.012L912.221 116.929L911.503 115.769L912.86 116.137L913.774 115.199L913.893 116.508L915.175 117.086L913.89 117.528L913.77 118.827L912.858 117.787L911.499 118.012Z" fill="black"/>
<ellipse cx="917.023" cy="104.339" rx="1.54125" ry="1.55163" fill="#30CBFC"/>
<ellipse cx="927.298" cy="125.028" rx="1.54125" ry="1.55163" fill="#30CBFC"/>
<ellipse cx="2.06883" cy="1.0275" rx="2.06883" ry="1.0275" transform="matrix(0.00520125 -0.999986 0.999986 0.00527153 940.142 137.958)" fill="#30CBFC"/>
<ellipse cx="2.06442" cy="1.02972" rx="2.06442" ry="1.02972" transform="matrix(0.562979 -0.826471 0.822931 0.568141 956.582 124.82)" fill="#30CBFC"/>
<ellipse cx="2.06442" cy="1.02972" rx="2.06442" ry="1.02972" transform="matrix(0.562979 -0.826471 0.822931 0.568141 966.857 133.095)" fill="#30CBFC"/>
<path d="M886.712 307.602V305.533C886.712 305.533 891.168 305.257 893.904 304.499C896.85 303.683 901.097 301.396 901.097 301.396L904.179 303.465L886.712 307.602Z" fill="#027027"/>
<path d="M1069.61 176.231L1000.76 136.924V158.646L1007.96 162.784L1003.85 167.956L1000.76 173.128L998.709 181.403C998.709 181.403 997.069 187.474 998.709 190.713C1000.13 193.524 1003.85 195.885 1003.85 195.885L986.379 213.47L1055.22 253.813L1063.44 247.606L1066.52 230.021L1060.36 222.78V211.402L1063.44 205.195L1069.61 197.954V176.231Z" fill="#D8D8D8"/>
<path d="M991.516 247.606V223.815L996.654 226.918V246.572L1058.3 282.776V264.157L1055.22 262.088L1063.44 257.95V290.017L1067.55 293.12L1054.19 301.396L983.296 258.985L996.654 250.709L991.516 247.606Z" fill="#D8D8D8"/>
<path d="M982.269 261.054V268.294C982.269 268.294 979.762 268.212 978.159 268.294C975.325 268.441 973.671 268.466 970.966 269.329C968.4 270.148 964.801 272.432 964.801 272.432L926.784 250.709L921.646 253.813L966.856 280.707L975.076 296.224L977.131 315.878L977.417 315.718L1014.12 295.189L1015.15 287.948L1053.17 310.706V304.499L982.269 261.054Z" fill="#D8D8D8"/>
<path d="M1007.96 453.455L1079.88 389.321L1005.9 345.876V317.946L973.021 336.566L959.664 329.325L905.206 374.839L1007.96 453.455Z" fill="#D8D8D8"/>
<path d="M1005.9 130.717V115.201C1005.9 115.201 1025.33 118.405 1036.73 123.476C1055.53 131.842 1077.83 156.577 1077.83 156.577V173.128L1005.9 130.717Z" fill="#D8D8D8"/>
<path d="M1096.32 193.816V235.193H1098.38V193.816H1096.32Z" fill="#D8D8D8"/>
<path d="M1005.9 130.717L1000.76 136.924L1069.61 176.231L1076.8 174.163V172.094L1005.9 130.717Z" fill="#FAB42F"/>
<path d="M1003.85 154.509V142.096L1066.52 177.266V191.748L1003.85 154.509Z" fill="#FAB42F"/>
<path d="M986.378 220.711V213.47L1055.22 253.813L1063.44 247.606V257.95L1055.22 262.088L986.378 220.711Z" fill="#FAB42F"/>
<path d="M983.296 258.985L982.268 261.054L1053.17 304.499L1054.19 301.396L983.296 258.985Z" fill="#FAB42F"/>
<path d="M978.158 328.291L1014.12 305.533C1014.12 305.533 1016.24 303.454 1016.18 301.396C1016.09 298.842 1014.12 295.189 1014.12 295.189C1014.12 295.189 1017.95 296.79 1019.26 299.327C1020.74 302.22 1021.31 308.637 1021.31 308.637L1005.9 317.946L973.021 336.566C973.021 336.566 974.048 298.293 971.993 293.12C969.447 286.711 966.856 280.707 966.856 280.707C966.856 280.707 967.868 279.089 968.911 278.639C970.017 278.161 970.966 278.639 970.966 278.639L973.021 283.811C973.021 283.811 975.652 291.512 976.103 294.155C977.532 302.525 977.131 315.878 977.131 315.878L978.158 328.291Z" fill="#FAB42F"/>
<path d="M976.104 361.392L978.159 360.358L992.544 368.633L996.654 365.53C996.654 365.53 999.437 362.694 999.736 360.358C1000.06 357.824 997.681 354.151 997.681 354.151L995.626 352.082C995.626 352.082 993.177 350.113 991.516 348.979C989.58 347.657 988.571 346.7 986.379 345.876C984.462 345.155 981.241 344.841 981.241 344.841L978.159 351.048V347.945L979.186 344.841H978.159V341.738C978.159 341.738 983.944 342.493 987.406 343.807C989.925 344.763 991.307 345.444 993.571 346.91C995.732 348.31 997.036 349.084 998.709 351.048C1001.28 354.068 1003.57 356.601 1002.82 360.358C1002.24 363.213 1000.95 365.247 998.709 367.598C996.706 369.702 992.544 371.736 992.544 371.736C992.544 371.736 990.24 372.655 987.406 373.805C984.226 375.095 984.603 376.233 981.241 376.908C975.718 378.017 964.801 376.908 964.801 376.908C964.801 376.908 959.604 375.161 956.581 373.805C952.402 371.931 949.94 370.35 947.334 366.564L947.221 366.401C945.543 363.964 944.416 362.328 944.251 359.323C944.09 356.387 944.817 354.612 946.306 352.082C948.192 348.878 950.33 347.798 953.499 345.876C956.116 344.288 961.719 342.772 961.719 342.772C961.719 342.772 964.813 341.852 966.856 341.738C967.657 341.693 968.911 341.738 968.911 341.738V344.841C968.911 344.841 964.727 345.36 962.746 345.876C960.289 346.515 958.871 346.842 956.581 347.945C953.971 349.201 952.456 350.016 950.416 352.082C949.002 353.515 947.968 354.304 947.334 356.22C946.699 358.136 947.334 361.392 947.334 361.392L968.911 358.289V360.358L949.389 364.495C949.389 364.495 951.569 367.43 953.499 368.633C954.262 369.108 954.734 369.3 955.554 369.667C960.375 371.829 962.374 372.573 966.856 372.771C971.284 372.966 986.379 370.702 986.379 370.702L989.461 369.667L976.104 361.392Z" fill="#FAB42F"/>
<path d="M1005.9 115.201L1055.22 87.2715C1055.22 87.2715 1080.13 92.8174 1094.27 102.788C1107.35 112.019 1123.04 132.786 1123.04 132.786V260.019V339.669L1079.88 389.321L1005.9 345.876V317.946C1005.9 317.946 1018.23 309.671 1019.26 308.637C1021.53 306.352 1020.56 303.315 1019.26 300.361C1018.11 297.751 1014.12 295.189 1014.12 295.189L1015.15 287.948L1054.19 310.706L1075.77 299.327L1076.8 155.543C1076.8 155.543 1058.46 135.967 1043.92 127.614C1030.13 119.694 1005.9 115.201 1005.9 115.201Z" fill="#0B065C"/>
<path d="M996.654 246.572V226.918L1059.33 264.157L1058.3 282.776L996.654 246.572Z" fill="#0B065C"/>
<path d="M999.622 171.29L1000.76 158.646L1007.96 162.784C1007.96 162.784 1003.66 168.152 1001.79 172.094C1000.15 175.551 998.709 181.403 998.709 181.403C998.709 181.403 997.069 187.474 998.709 190.713C1000.13 193.524 1003.85 195.885 1003.85 195.885L995.626 204.161L999.622 171.29Z" fill="#0B065C"/>
<path d="M1022.34 220.711L1017.2 217.608L1022.34 212.436L1027.48 215.539L1022.34 220.711Z" fill="#0B065C"/>
<path d="M1034.67 228.987L1029.53 225.883L1034.67 220.711L1039.81 223.815L1034.67 228.987Z" fill="#0B065C"/>
<path d="M973.021 336.566L968.911 334.497V370.24C968.911 370.24 972.005 370.8 974.049 370.702C975.701 370.622 978.159 370.702 978.159 370.702V333.463L973.021 336.566Z" fill="#0B065C"/>
<path d="M1047 237.262L1041.86 234.159L1047 228.987L1052.14 232.09L1047 237.262Z" fill="#0B065C"/>
<path d="M1010.01 212.436L1004.87 209.333L1010.01 204.161L1015.15 207.264L1010.01 212.436Z" fill="#0B065C"/>
<path d="M1010.01 128.648V120.373C1010.01 120.373 1026.8 124.078 1036.73 128.648C1052.64 135.973 1072.69 155.543 1072.69 155.543V165.887L1010.01 128.648Z" fill="#002776"/>
<path d="M1076.8 174.163L1069.61 176.231V197.954C1069.61 197.954 1062.2 204.597 1060.36 210.367C1058.64 215.753 1058.3 219.677 1061.39 224.849C1062.87 227.347 1066.52 230.021 1066.52 230.021L1063.44 247.322V249.675V290.017L1067.55 293.12L1054.19 301.396L1053.17 304.499V310.706H1054.19L1075.77 299.327L1076.8 174.163Z" fill="#002776"/>
<path d="M1058.3 191.748L1054.19 189.679C1054.19 189.679 1049.53 193.645 1047.49 196.92C1045.43 200.221 1044.46 202.37 1043.92 206.229C1043.36 210.25 1044.95 216.574 1044.95 216.574L1049.06 219.677C1049.06 219.677 1047.31 212.701 1048.03 208.298C1048.59 204.893 1049.41 203.02 1051.11 200.023C1053.23 196.294 1058.3 191.748 1058.3 191.748Z" fill="#002776"/>
<path d="M992.543 257.95L988.434 261.054L1051.11 298.293L1057.28 294.155L992.543 257.95Z" fill="#002776"/>
<path d="M978.159 328.291L977.131 315.878L1015.15 295.189C1015.15 295.189 1016.25 298.94 1016.18 301.396C1016.11 303.455 1015.94 304.07 1015.15 305.533C1013.92 307.806 1010.01 309.671 1010.01 309.671L978.159 328.291Z" fill="#002776"/>
<path d="M973.021 336.566L925.756 310.706V264.684L921.646 253.813L966.856 280.707C966.856 280.707 969.879 287.549 971.994 293.12C973.564 297.258 973.021 336.566 973.021 336.566Z" fill="#002776"/>
<path d="M1048.03 185.541L1043.92 183.472C1043.92 183.472 1039.25 187.438 1037.21 190.713C1035.16 194.015 1034.18 196.163 1033.64 200.023C1033.08 204.043 1034.67 210.367 1034.67 210.367L1038.78 213.47C1038.78 213.47 1037.03 206.494 1037.75 202.092C1038.31 198.686 1039.14 196.813 1040.84 193.816C1042.95 190.088 1048.03 185.541 1048.03 185.541Z" fill="#002776"/>
<path d="M1033.64 177.266L1029.53 175.197C1029.53 175.197 1024.87 179.163 1022.83 182.438C1020.77 185.74 1019.8 187.888 1019.26 191.748C1018.7 195.768 1020.29 202.092 1020.29 202.092L1024.4 205.195C1024.4 205.195 1022.65 198.219 1023.37 193.816C1023.93 190.411 1024.75 188.538 1026.45 185.541C1028.57 181.812 1033.64 177.266 1033.64 177.266Z" fill="#002776"/>
<path d="M1021.31 168.99L1017.2 166.922C1017.2 166.922 1012.54 170.888 1010.5 174.163C1008.44 177.464 1007.47 179.613 1006.93 183.472C1006.37 187.493 1007.96 193.816 1007.96 193.816L1012.07 196.92C1012.07 196.92 1010.32 189.944 1011.04 185.541C1011.6 182.136 1012.42 180.263 1014.12 177.266C1016.24 173.537 1021.31 168.99 1021.31 168.99Z" fill="#002776"/>
<path d="M1017.2 219.677V217.608L1022.34 220.711L1027.48 215.539V217.608L1022.34 222.78L1017.2 219.677Z" fill="#002776"/>
<path d="M1029.53 227.952V225.883L1034.67 228.987L1039.81 223.815V225.883L1034.67 231.055L1029.53 227.952Z" fill="#002776"/>
<path d="M947.334 375.874C949.054 373.531 952.471 371.736 952.471 371.736C952.471 371.736 959.782 375.112 964.801 375.874C967.084 376.22 976.994 376.991 984.324 374.839C985.542 374.482 986.237 374.301 987.406 373.805C989.562 372.891 992.543 371.736 992.543 371.736C992.543 371.736 984.732 372.158 982.269 372.771C979.899 373.359 977.513 373.671 975.076 373.805C971.448 374.004 967.348 373.429 963.774 372.771C960.519 372.171 955.554 369.667 955.554 369.667C955.554 369.667 960.673 368.213 962.746 367.598C964.709 367.016 968.911 366.564 968.911 366.564V369.667C968.911 369.667 972.005 370.8 974.049 370.702C975.701 370.622 978.159 369.667 978.159 369.667V366.564C978.159 366.564 981.333 367.016 983.296 367.598C985.369 368.213 992.543 371.736 992.543 371.736C992.543 371.736 999.442 374.605 1000.76 378.977C1001.58 381.682 1001.53 383.498 1000.76 386.218C999.819 389.56 998.203 391.147 995.626 393.459C993.21 395.625 991.437 396.387 988.433 397.597C983.533 399.569 980.353 399.557 975.076 399.665C970.645 399.756 968.081 399.68 963.774 398.631C959.573 397.608 957.154 396.815 953.499 394.493C950.848 392.81 949.023 391.979 947.334 389.321C945.55 386.516 944.831 384.347 945.279 381.046C945.571 378.89 946.049 377.623 947.334 375.874Z" fill="#002776"/>
<path d="M1041.86 236.228V234.159L1047 237.262L1052.14 232.09V234.159L1047 239.331L1041.86 236.228Z" fill="#002776"/>
<path d="M1004.87 211.402V209.333L1007.44 210.884L1010.01 212.436L1015.15 207.264V209.333L1010.01 214.505L1004.87 211.402Z" fill="#002776"/>
<path d="M1018.23 177.266L1021.31 179.335C1021.31 179.335 1019.26 180.651 1018.23 181.403C1017.06 182.261 1016.18 183.472 1016.18 183.472" stroke="black" stroke-width="0.2"/>
<path d="M1028.44 190.476L1031.94 191.678C1031.94 191.678 1030.29 193.482 1029.49 194.475C1028.58 195.606 1028.03 197.005 1028.03 197.005" stroke="black" stroke-width="0.2"/>
<path d="M1039.81 205.195L1042.89 206.229L1041.86 208.298L1041.35 209.85V211.142" stroke="black" stroke-width="0.2"/>
<g clip-path="url(#clip2_310_2)">
<path d="M1032.8 184.101L1033.79 183.262L1033.42 181.947L1034.62 182.68L1035.76 182.035L1035.51 183.325L1036.58 184.239L1035.23 184.304L1034.75 185.518L1034.16 184.265L1032.8 184.101Z" fill="black"/>
</g>
<g clip-path="url(#clip3_310_2)">
<path d="M1051.23 206.484L1052.07 207.145L1053.08 206.436L1052.68 207.732L1053.38 208.578L1052.29 208.722L1051.72 209.952L1051.45 208.743L1050.39 208.659L1051.31 207.769L1051.23 206.484Z" fill="black"/>
</g>
<g clip-path="url(#clip4_310_2)">
<path d="M999.863 186.284L1000.59 185.201L999.868 184.041L1001.22 184.409L1002.14 183.471L1002.26 184.779L1003.54 185.358L1002.25 185.799L1002.13 187.099L1001.22 186.059L999.863 186.284Z" fill="black"/>
</g>
<ellipse cx="1005.39" cy="172.611" rx="1.54125" ry="1.55163" fill="#0B065C"/>
<ellipse cx="1015.66" cy="193.299" rx="1.54125" ry="1.55163" fill="#0B065C"/>
<ellipse cx="2.06883" cy="1.0275" rx="2.06883" ry="1.0275" transform="matrix(0.00520125 -0.999986 0.999986 0.00527153 1028.51 206.229)" fill="#0B065C"/>
<ellipse cx="2.06442" cy="1.02972" rx="2.06442" ry="1.02972" transform="matrix(0.562979 -0.826471 0.822931 0.568141 1044.95 193.091)" fill="#0B065C"/>
<ellipse cx="2.06442" cy="1.02972" rx="2.06442" ry="1.02972" transform="matrix(0.562979 -0.826471 0.822931 0.568141 1055.22 201.366)" fill="#0B065C"/>
<path d="M975.076 375.874V373.805C975.076 373.805 979.533 373.528 982.269 372.771C985.215 371.954 989.461 369.667 989.461 369.667L992.544 371.736L975.076 375.874Z" fill="#FAB42F"/>
<path d="M1166.19 250.709L1097.35 211.401V233.124L1104.54 237.262L1100.43 242.434L1097.35 247.606L1095.29 255.881C1095.29 255.881 1093.65 261.951 1095.29 265.191C1096.72 268.002 1100.43 270.363 1100.43 270.363L1082.96 287.948L1151.81 328.29L1160.03 322.084L1163.11 304.499L1156.94 297.258V285.879L1160.03 279.673L1166.19 272.432V250.709Z" fill="#D8D8D8"/>
<path d="M1088.1 322.084V298.292L1093.24 301.396V321.049L1154.89 357.254V338.635L1151.81 336.566L1160.03 332.428V364.495L1164.14 367.598L1150.78 375.874L1079.88 333.462L1093.24 325.187L1088.1 322.084Z" fill="#D8D8D8"/>
<path d="M1078.85 335.531V342.772C1078.85 342.772 1076.35 342.689 1074.74 342.772C1071.91 342.919 1070.26 342.943 1067.55 343.807C1064.99 344.626 1061.39 346.91 1061.39 346.91L1023.37 325.187L1018.23 328.29L1063.44 355.185L1071.66 370.701L1073.72 390.355L1074 390.196L1110.71 369.667L1111.73 362.426L1149.75 385.183V378.977L1078.85 335.531Z" fill="#D8D8D8"/>
<path d="M1097.35 524.623L1176.47 463.799L1102.49 420.353V392.424L1069.61 411.044L1056.25 403.803L1001.79 449.317L1097.35 524.623Z" fill="#D8D8D8"/>
<path d="M1102.49 205.195V189.679C1102.49 189.679 1121.92 192.883 1133.31 197.954C1152.11 206.32 1174.41 231.055 1174.41 231.055V247.606L1102.49 205.195Z" fill="#D8D8D8"/>
<path d="M1192.91 268.294V309.671H1194.96V268.294H1192.91Z" fill="#D8D8D8"/>
<path d="M1102.49 205.195L1097.35 211.401L1166.19 250.709L1173.38 248.64V246.571L1102.49 205.195Z" fill="#FAB42F"/>
<path d="M1100.43 228.986V216.573L1163.11 251.744V266.225L1100.43 228.986Z" fill="#FAB42F"/>
<path d="M1082.96 295.189V287.948L1151.81 328.29L1160.03 322.084V332.428L1151.81 336.566L1082.96 295.189Z" fill="#FAB42F"/>
<path d="M1079.88 333.462L1078.85 335.531L1149.75 378.977L1150.78 375.874L1079.88 333.462Z" fill="#FAB42F"/>
<path d="M1074.74 402.768L1110.71 380.011C1110.71 380.011 1112.83 377.932 1112.76 375.874C1112.68 373.32 1110.71 369.667 1110.71 369.667C1110.71 369.667 1114.54 371.268 1115.84 373.805C1117.33 376.698 1117.9 383.115 1117.9 383.115L1102.49 392.424L1069.61 411.044C1069.61 411.044 1070.63 372.77 1068.58 367.598C1066.03 361.189 1063.44 355.185 1063.44 355.185C1063.44 355.185 1064.45 353.567 1065.5 353.116C1066.6 352.639 1067.55 353.116 1067.55 353.116L1069.61 358.289C1069.61 358.289 1072.24 365.99 1072.69 368.633C1074.12 377.003 1073.72 390.355 1073.72 390.355L1074.74 402.768Z" fill="#FAB42F"/>
<path d="M1072.69 435.87L1074.74 434.835L1089.13 443.111L1093.24 440.007C1093.24 440.007 1096.02 437.172 1096.32 434.835C1096.65 432.301 1094.27 428.629 1094.27 428.629L1092.21 426.56C1092.21 426.56 1089.76 424.59 1088.1 423.457C1086.16 422.135 1085.16 421.177 1082.96 420.354C1081.05 419.633 1077.83 419.319 1077.83 419.319L1074.74 425.526V422.422L1075.77 419.319H1074.74V416.216C1074.74 416.216 1080.53 416.971 1083.99 418.285C1086.51 419.241 1087.89 419.922 1090.16 421.388C1092.32 422.787 1093.62 423.562 1095.29 425.526C1097.87 428.546 1100.16 431.079 1099.4 434.835C1098.83 437.69 1097.53 439.725 1095.29 442.076C1093.29 444.179 1089.13 446.214 1089.13 446.214C1089.13 446.214 1086.83 447.133 1083.99 448.283C1080.81 449.573 1081.19 450.711 1077.83 451.386C1072.3 452.495 1061.39 451.386 1061.39 451.386C1061.39 451.386 1056.19 449.638 1053.17 448.283C1048.99 446.408 1046.52 444.828 1043.92 441.042L1043.81 440.879C1042.13 438.441 1041 436.806 1040.84 433.801C1040.67 430.865 1041.4 429.09 1042.89 426.56C1044.78 423.356 1046.91 422.275 1050.08 420.354C1052.7 418.766 1058.3 417.25 1058.3 417.25C1058.3 417.25 1061.4 416.33 1063.44 416.216C1064.24 416.171 1065.5 416.216 1065.5 416.216V419.319C1065.5 419.319 1061.31 419.838 1059.33 420.354C1056.87 420.993 1055.46 421.32 1053.17 422.422C1050.56 423.679 1049.04 424.493 1047 426.56C1045.59 427.993 1044.55 428.781 1043.92 430.698C1043.28 432.614 1043.92 435.87 1043.92 435.87L1065.5 432.767V434.835L1045.97 438.973C1045.97 438.973 1048.15 441.908 1050.08 443.111C1050.85 443.586 1051.32 443.778 1052.14 444.145C1056.96 446.306 1058.96 447.051 1063.44 447.248C1067.87 447.444 1082.96 445.18 1082.96 445.18L1086.05 444.145L1072.69 435.87Z" fill="#FAB42F"/>
<path d="M1102.49 189.679L1151.81 161.749C1151.81 161.749 1176.72 167.295 1190.85 177.266C1203.94 186.497 1219.62 207.264 1219.62 207.264V334.497V425.284L1176.47 463.799L1102.49 420.354V392.424C1102.49 392.424 1114.82 384.149 1115.84 383.115C1118.11 380.829 1117.15 377.792 1115.84 374.839C1114.69 372.229 1110.71 369.667 1110.71 369.667L1111.73 362.426L1150.78 385.183L1172.36 373.805L1173.38 230.021C1173.38 230.021 1155.05 210.445 1140.5 202.092C1126.72 194.172 1102.49 189.679 1102.49 189.679Z" fill="#FAB42F"/>
<path d="M1093.24 321.049V301.396L1155.92 338.635L1154.89 357.254L1093.24 321.049Z" fill="#FAB42F"/>
<path d="M1096.21 245.767L1097.35 233.124L1104.54 237.262C1104.54 237.262 1100.25 242.63 1098.38 246.571C1096.73 250.029 1095.29 255.881 1095.29 255.881C1095.29 255.881 1093.65 261.951 1095.29 265.191C1096.72 268.002 1100.43 270.363 1100.43 270.363L1092.21 278.638L1096.21 245.767Z" fill="#FAB42F"/>
<path d="M1118.93 295.189L1113.79 292.086L1118.93 286.914L1124.06 290.017L1118.93 295.189Z" fill="#FAB42F"/>
<path d="M1131.26 303.464L1126.12 300.361L1131.26 295.189L1136.39 298.292L1131.26 303.464Z" fill="#FAB42F"/>
<path d="M1069.61 411.044L1065.5 408.975V444.718C1065.5 444.718 1068.59 445.277 1070.63 445.18C1072.29 445.1 1074.74 445.18 1074.74 445.18V407.941L1069.61 411.044Z" fill="#FAB42F"/>
<path d="M1143.59 311.74L1138.45 308.637L1143.59 303.464L1148.72 306.568L1143.59 311.74Z" fill="#FAB42F"/>
<path d="M1106.6 286.914L1101.46 283.811L1106.6 278.638L1111.73 281.742L1106.6 286.914Z" fill="#FAB42F"/>
<path d="M1106.6 203.126V194.851C1106.6 194.851 1123.38 198.556 1133.31 203.126C1149.22 210.451 1169.27 230.021 1169.27 230.021V240.365L1106.6 203.126Z" fill="#027027"/>
<path d="M1173.38 248.64L1166.19 250.709V272.432C1166.19 272.432 1158.78 279.075 1156.94 284.845C1155.23 290.23 1154.89 294.155 1157.97 299.327C1159.46 301.825 1163.11 304.499 1163.11 304.499L1160.03 321.8V324.153V364.495L1164.14 367.598L1150.78 375.874L1149.75 378.977V385.183H1150.78L1172.36 373.805L1173.38 248.64Z" fill="#027027"/>
<path d="M1154.89 266.225L1150.78 264.157C1150.78 264.157 1146.11 268.123 1144.07 271.397C1142.02 274.699 1141.04 276.848 1140.5 280.707C1139.94 284.728 1141.53 291.051 1141.53 291.051L1145.64 294.155C1145.64 294.155 1143.89 287.179 1144.61 282.776C1145.17 279.37 1146 277.498 1147.7 274.501C1149.81 270.772 1154.89 266.225 1154.89 266.225Z" fill="#027027"/>
<path d="M1089.13 332.428L1085.02 335.531L1147.7 372.77L1153.86 368.633L1089.13 332.428Z" fill="#027027"/>
<path d="M1074.74 402.768L1073.72 390.355L1111.73 369.667C1111.73 369.667 1112.84 373.418 1112.76 375.874C1112.69 377.932 1112.52 378.548 1111.73 380.011C1110.51 382.284 1106.6 384.149 1106.6 384.149L1074.74 402.768Z" fill="#027027"/>
<path d="M1069.61 411.044L1022.34 385.183V339.162L1018.23 328.29L1063.44 355.185C1063.44 355.185 1066.46 362.027 1068.58 367.598C1070.15 371.736 1069.61 411.044 1069.61 411.044Z" fill="#027027"/>
<path d="M1144.61 260.019L1140.5 257.95C1140.5 257.95 1135.84 261.916 1133.8 265.191C1131.74 268.493 1130.77 270.641 1130.23 274.501C1129.67 278.521 1131.26 284.845 1131.26 284.845L1135.37 287.948C1135.37 287.948 1133.62 280.972 1134.34 276.57C1134.9 273.164 1135.72 271.291 1137.42 268.294C1139.54 264.566 1144.61 260.019 1144.61 260.019Z" fill="#027027"/>
<path d="M1130.23 251.744L1126.12 249.675C1126.12 249.675 1121.45 253.641 1119.41 256.916C1117.36 260.217 1116.38 262.366 1115.84 266.225C1115.28 270.246 1116.87 276.57 1116.87 276.57L1120.98 279.673C1120.98 279.673 1119.23 272.697 1119.95 268.294C1120.51 264.889 1121.34 263.016 1123.04 260.019C1125.15 256.29 1130.23 251.744 1130.23 251.744Z" fill="#027027"/>
<path d="M1117.9 243.468L1113.79 241.399C1113.79 241.399 1109.12 245.366 1107.08 248.64C1105.03 251.942 1104.05 254.09 1103.51 257.95C1102.95 261.971 1104.54 268.294 1104.54 268.294L1108.65 271.397C1108.65 271.397 1106.9 264.422 1107.62 260.019C1108.18 256.613 1109.01 254.741 1110.71 251.744C1112.82 248.015 1117.9 243.468 1117.9 243.468Z" fill="#027027"/>
<path d="M1113.79 294.155V292.086L1118.93 295.189L1124.06 290.017V292.086L1118.93 297.258L1113.79 294.155Z" fill="#027027"/>
<path d="M1126.12 302.43V300.361L1131.26 303.464L1136.39 298.292V300.361L1131.26 305.533L1126.12 302.43Z" fill="#027027"/>
<path d="M1043.92 450.352C1045.64 448.009 1049.06 446.214 1049.06 446.214C1049.06 446.214 1056.37 449.59 1061.39 450.352C1063.67 450.698 1073.58 451.468 1080.91 449.317C1082.13 448.96 1082.82 448.778 1083.99 448.283C1086.15 447.369 1089.13 446.214 1089.13 446.214C1089.13 446.214 1081.32 446.636 1078.85 447.248C1076.48 447.837 1074.1 448.149 1071.66 448.283C1068.03 448.482 1063.93 447.907 1060.36 447.248C1057.1 446.649 1052.14 444.145 1052.14 444.145C1052.14 444.145 1057.26 442.691 1059.33 442.076C1061.29 441.494 1065.5 441.042 1065.5 441.042V444.145C1065.5 444.145 1068.59 445.277 1070.63 445.179C1072.29 445.1 1074.74 444.145 1074.74 444.145V441.042C1074.74 441.042 1077.92 441.494 1079.88 442.076C1081.95 442.691 1089.13 446.214 1089.13 446.214C1089.13 446.214 1096.03 449.082 1097.35 453.455C1098.17 456.16 1098.12 457.976 1097.35 460.696C1096.4 464.038 1094.79 465.625 1092.21 467.937C1089.8 470.103 1088.02 470.865 1085.02 472.074C1080.12 474.047 1076.94 474.035 1071.66 474.143C1067.23 474.234 1064.67 474.158 1060.36 473.109C1056.16 472.085 1053.74 471.293 1050.08 468.971C1047.43 467.288 1045.61 466.456 1043.92 463.799C1042.13 460.993 1041.42 458.824 1041.86 455.524C1042.16 453.368 1042.63 452.101 1043.92 450.352Z" fill="#027027"/>
<path d="M1138.45 310.705V308.636L1143.59 311.74L1148.72 306.568V308.636L1143.59 313.809L1138.45 310.705Z" fill="#027027"/>
<path d="M1101.46 285.879V283.81L1104.03 285.362L1106.6 286.914L1111.73 281.742V283.81L1106.6 288.983L1101.46 285.879Z" fill="#027027"/>
<path d="M1114.82 251.744L1117.9 253.812C1117.9 253.812 1115.84 255.129 1114.82 255.881C1113.65 256.739 1112.76 257.95 1112.76 257.95" stroke="black" stroke-width="0.2"/>
<path d="M1125.02 264.953L1128.53 266.156C1128.53 266.156 1126.88 267.96 1126.08 268.952C1125.17 270.084 1124.62 271.483 1124.62 271.483" stroke="black" stroke-width="0.2"/>
<path d="M1136.39 279.673L1139.48 280.707L1138.45 282.776L1137.94 284.328V285.62" stroke="black" stroke-width="0.2"/>
<g clip-path="url(#clip5_310_2)">
<path d="M1129.38 258.578L1130.37 257.74L1130 256.425L1131.21 257.158L1132.34 256.512L1132.1 257.803L1133.17 258.717L1131.81 258.782L1131.34 259.996L1130.75 258.742L1129.38 258.578Z" fill="black"/>
</g>
<g clip-path="url(#clip6_310_2)">
<path d="M1147.81 280.962L1148.65 281.622L1149.66 280.914L1149.26 282.21L1149.97 283.056L1148.88 283.199L1148.31 284.43L1148.04 283.22L1146.98 283.137L1147.9 282.247L1147.81 280.962Z" fill="black"/>
</g>
<g clip-path="url(#clip7_310_2)">
<path d="M1096.45 260.762L1097.17 259.679L1096.45 258.519L1097.81 258.887L1098.72 257.949L1098.84 259.257L1100.12 259.836L1098.84 260.277L1098.72 261.576L1097.81 260.537L1096.45 260.762Z" fill="black"/>
</g>
<ellipse cx="1101.97" cy="247.089" rx="1.54125" ry="1.55163" fill="#FAB42F"/>
<ellipse cx="1112.25" cy="267.777" rx="1.54125" ry="1.55163" fill="#FAB42F"/>
<ellipse cx="2.06883" cy="1.0275" rx="2.06883" ry="1.0275" transform="matrix(0.00520125 -0.999986 0.999986 0.00527153 1125.09 280.707)" fill="#FAB42F"/>
<ellipse cx="2.06442" cy="1.02972" rx="2.06442" ry="1.02972" transform="matrix(0.562979 -0.826471 0.822931 0.568141 1141.53 267.569)" fill="#FAB42F"/>
<ellipse cx="2.06442" cy="1.02972" rx="2.06442" ry="1.02972" transform="matrix(0.562979 -0.826471 0.822931 0.568141 1151.81 275.844)" fill="#FAB42F"/>
<path d="M1071.66 450.352V448.283C1071.66 448.283 1076.12 448.006 1078.85 447.248C1081.8 446.432 1086.05 444.145 1086.05 444.145L1089.13 446.214L1071.66 450.352Z" fill="#FAB42F"/>
<path d="M1459.29 257.343L-100.964 1434.68L-106.385 1427.49L1453.87 250.159L1459.29 257.343Z" fill="#FAB42F"/>
<rect x="411.912" y="-6" width="1316.7" height="8.05798" transform="rotate(37.5616 411.912 -6)" fill="#FAB42F"/>
<defs>
<clipPath id="clip0_310_2">
<rect width="6.20315" height="5.69855" fill="white" transform="matrix(0.809785 0.586726 -0.581561 0.813503 945.511 111.063)"/>
</clipPath>
<clipPath id="clip1_310_2">
<rect width="5.98392" height="4.61641" fill="white" transform="matrix(-0.359908 0.932988 -0.931348 -0.36413 967.145 137.57)"/>
</clipPath>
<clipPath id="clip2_310_2">
<rect width="6.20315" height="5.69855" fill="white" transform="matrix(0.809785 0.586726 -0.581561 0.813503 1033.87 179.335)"/>
</clipPath>
<clipPath id="clip3_310_2">
<rect width="5.98392" height="4.61641" fill="white" transform="matrix(-0.359908 0.932988 -0.931348 -0.36413 1055.51 205.842)"/>
</clipPath>
<clipPath id="clip4_310_2">
<rect width="6.19361" height="5.70726" fill="white" transform="matrix(0.94124 0.337738 -0.33374 0.942665 999.586 181.403)"/>
</clipPath>
<clipPath id="clip5_310_2">
<rect width="6.20315" height="5.69855" fill="white" transform="matrix(0.809785 0.586726 -0.581561 0.813503 1130.46 253.812)"/>
</clipPath>
<clipPath id="clip6_310_2">
<rect width="5.98392" height="4.61641" fill="white" transform="matrix(-0.359908 0.932988 -0.931348 -0.36413 1152.09 280.319)"/>
</clipPath>
<clipPath id="clip7_310_2">
<rect width="6.19361" height="5.70726" fill="white" transform="matrix(0.94124 0.337738 -0.33374 0.942665 1096.17 255.881)"/>
</clipPath>
</defs>
</svg>
