<svg width="429" height="618" viewBox="0 0 429 618" fill="none" xmlns="http://www.w3.org/2000/svg">
<path d="M324.241 79.746L293.802 61.8935V71.7594L296.982 73.6386L295.165 75.9876L293.802 78.3366L292.893 82.0951C292.893 82.0951 292.168 84.852 292.893 86.3233C293.522 87.6001 295.165 88.6723 295.165 88.6723L287.441 96.659L317.881 114.981L321.515 112.163L322.878 104.176L320.152 100.887V95.7194L321.515 92.9006L324.241 89.6119V79.746Z" fill="#D8D8D8"/>
<path d="M289.713 112.163V101.357L291.984 102.766V111.693L319.244 128.136V119.679L317.881 118.74L321.515 116.861V131.424L323.333 132.834L317.427 136.592L286.078 117.33L291.984 113.572L289.713 112.163Z" fill="#D8D8D8"/>
<path d="M285.624 118.27V121.559C285.624 121.559 284.515 121.521 283.807 121.559C282.554 121.625 281.822 121.636 280.626 122.028C279.492 122.4 277.9 123.438 277.9 123.438L261.09 113.572L258.819 114.981L278.809 127.196L282.444 134.243L283.352 143.17L283.479 143.097L299.708 133.774L300.162 130.485L316.972 140.821V138.002L285.624 118.27Z" fill="#D8D8D8"/>
<path d="M296.982 205.654L328.785 176.526L296.073 156.794V144.109L281.535 152.566L275.629 149.277L247.198 167.343L296.982 205.654Z" fill="#D8D8D8"/>
<path d="M296.073 59.0747V52.0276C296.073 52.0276 304.665 53.4831 309.703 55.786C318.016 59.5856 327.876 70.8198 327.876 70.8198V78.3366L296.073 59.0747Z" fill="#D8D8D8"/>
<path d="M336.054 87.7327V106.525H336.962V87.7327H336.054Z" fill="#D8D8D8"/>
<path d="M324.241 79.746L293.802 61.8935V71.7594L296.982 73.6386L295.165 75.9876L293.802 78.3366L292.893 82.0951C292.893 82.0951 292.168 84.852 292.893 86.3233C293.522 87.6001 295.165 88.6723 295.165 88.6723L287.441 96.659L317.881 114.981L321.515 112.163L322.878 104.176L320.152 100.887V95.7194L321.515 92.9006L324.241 89.6119V79.746Z" stroke="black" stroke-width="0.2"/>
<path d="M289.713 112.163V101.357L291.984 102.766V111.693L319.244 128.136V119.679L317.881 118.74L321.515 116.861V131.424L323.333 132.834L317.427 136.592L286.078 117.33L291.984 113.572L289.713 112.163Z" stroke="black" stroke-width="0.2"/>
<path d="M285.624 118.27V121.559C285.624 121.559 284.515 121.521 283.807 121.559C282.554 121.625 281.822 121.636 280.626 122.028C279.492 122.4 277.9 123.438 277.9 123.438L261.09 113.572L258.819 114.981L278.809 127.196L282.444 134.243L283.352 143.17L283.479 143.097L299.708 133.774L300.162 130.485L316.972 140.821V138.002L285.624 118.27Z" stroke="black" stroke-width="0.2"/>
<path d="M296.982 205.654L328.785 176.526L296.073 156.794V144.109L281.535 152.566L275.629 149.277L247.198 167.343L296.982 205.654Z" stroke="black" stroke-width="0.2"/>
<path d="M296.073 59.0747V52.0276C296.073 52.0276 304.665 53.4831 309.703 55.786C318.016 59.5856 327.876 70.8198 327.876 70.8198V78.3366L296.073 59.0747Z" stroke="black" stroke-width="0.2"/>
<path d="M336.054 87.7327V106.525H336.962V87.7327H336.054Z" stroke="black" stroke-width="0.2"/>
<path d="M296.074 59.0747L293.802 61.8935L324.242 79.746L327.422 78.8064V77.8668L296.074 59.0747Z" fill="#027027"/>
<path d="M295.165 69.8802V64.2425L322.879 80.2159V86.7931L295.165 69.8802Z" fill="#027027"/>
<path d="M287.441 99.9476V96.659L317.881 114.981L321.516 112.163V116.861L317.881 118.74L287.441 99.9476Z" fill="#027027"/>
<path d="M286.078 117.33L285.624 118.27L316.972 138.002L317.427 136.592L286.078 117.33Z" fill="#027027"/>
<path d="M283.807 148.807L299.708 138.472C299.708 138.472 300.647 137.527 300.617 136.592C300.579 135.433 299.708 133.774 299.708 133.774C299.708 133.774 301.403 134.5 301.98 135.653C302.637 136.967 302.888 139.881 302.888 139.881L296.074 144.109L281.535 152.566C281.535 152.566 281.989 135.183 281.081 132.834C279.955 129.923 278.809 127.196 278.809 127.196C278.809 127.196 279.257 126.461 279.718 126.257C280.207 126.04 280.627 126.257 280.627 126.257L281.535 128.606C281.535 128.606 282.699 132.104 282.898 133.304C283.53 137.105 283.352 143.17 283.352 143.17L283.807 148.807Z" fill="#027027"/>
<path d="M282.898 163.841L283.807 163.371L290.167 167.13L291.985 165.72C291.985 165.72 293.216 164.432 293.348 163.371C293.491 162.22 292.439 160.552 292.439 160.552L291.53 159.613C291.53 159.613 290.447 158.718 289.713 158.203C288.857 157.603 288.411 157.168 287.441 156.794C286.594 156.467 285.17 156.324 285.17 156.324L283.807 159.143V157.734L284.261 156.324H283.807V154.915C283.807 154.915 286.365 155.258 287.896 155.854C289.009 156.289 289.621 156.598 290.622 157.264C291.577 157.899 292.154 158.251 292.893 159.143C294.031 160.515 295.044 161.665 294.711 163.371C294.457 164.668 293.883 165.592 292.893 166.66C292.008 167.615 290.167 168.539 290.167 168.539C290.167 168.539 289.149 168.956 287.896 169.479C286.49 170.065 286.656 170.582 285.17 170.888C282.728 171.392 277.901 170.888 277.901 170.888C277.901 170.888 275.603 170.094 274.266 169.479C272.418 168.627 271.329 167.909 270.177 166.19L270.128 166.116C269.385 165.009 268.887 164.266 268.814 162.901C268.743 161.568 269.064 160.762 269.723 159.613C270.557 158.158 271.502 157.667 272.903 156.794C274.061 156.073 276.538 155.385 276.538 155.385C276.538 155.385 277.906 154.967 278.809 154.915C279.164 154.894 279.718 154.915 279.718 154.915V156.324C279.718 156.324 277.868 156.56 276.992 156.794C275.906 157.084 275.278 157.233 274.266 157.734C273.112 158.304 272.442 158.674 271.54 159.613C270.915 160.264 270.458 160.622 270.177 161.492C269.897 162.362 270.177 163.841 270.177 163.841L279.718 162.432V163.371L271.086 165.25C271.086 165.25 272.05 166.583 272.903 167.13C273.24 167.346 273.449 167.433 273.812 167.599C275.944 168.581 276.828 168.919 278.809 169.009C280.767 169.098 287.441 168.069 287.441 168.069L288.804 167.599L282.898 163.841Z" fill="#027027"/>
<path d="M296.073 52.0276L317.881 39.3429C317.881 39.3429 328.895 41.8617 335.145 46.39C340.932 50.5827 347.866 60.0143 347.866 60.0143V117.8V153.975L328.785 176.526L296.073 156.794V144.109C296.073 144.109 301.525 140.351 301.98 139.881C302.983 138.843 302.556 137.464 301.98 136.123C301.47 134.937 299.708 133.774 299.708 133.774L300.162 130.485L317.427 140.821L326.967 135.653L327.422 70.35C327.422 70.35 319.313 61.4591 312.883 57.6653C306.787 54.0683 296.073 52.0276 296.073 52.0276Z" fill="#33CEFF"/>
<path d="M291.984 111.693V102.766L319.698 119.679L319.244 128.136L291.984 111.693Z" fill="#33CEFF"/>
<path d="M293.297 77.5016L293.802 71.7594L296.982 73.6386C296.982 73.6386 295.084 76.0765 294.256 77.8668C293.53 79.437 292.893 82.0951 292.893 82.0951C292.893 82.0951 292.168 84.852 292.893 86.3233C293.522 87.6001 295.165 88.6723 295.165 88.6723L291.53 92.4308L293.297 77.5016Z" fill="#33CEFF"/>
<path d="M303.343 99.9476L301.071 98.5382L303.343 96.1892L305.614 97.5986L303.343 99.9476Z" fill="#33CEFF"/>
<path d="M308.794 103.706L306.523 102.297L308.794 99.9476L311.066 101.357L308.794 103.706Z" fill="#33CEFF"/>
<path d="M281.535 152.566L279.718 151.626V167.859C279.718 167.859 281.086 168.114 281.989 168.069C282.72 168.033 283.807 168.069 283.807 168.069V151.156L281.535 152.566Z" fill="#33CEFF"/>
<path d="M314.246 107.464L311.975 106.055L314.246 103.706L316.518 105.115L314.246 107.464Z" fill="#33CEFF"/>
<path d="M297.891 96.1892L295.619 94.7798L297.891 92.4308L300.162 93.8402L297.891 96.1892Z" fill="#33CEFF"/>
<path d="M297.891 58.1351V54.3766C297.891 54.3766 305.314 56.0594 309.703 58.1351C316.738 61.4619 325.604 70.35 325.604 70.35V75.048L297.891 58.1351Z" fill="#00032D"/>
<path d="M327.422 78.8064L324.241 79.746V89.6119C324.241 89.6119 320.965 92.6289 320.152 95.2496C319.394 97.6955 319.244 99.4778 320.607 101.827C321.265 102.961 322.878 104.176 322.878 104.176L321.515 112.034V113.102V131.424L323.333 132.834L317.427 136.592L316.972 138.002V140.821H317.427L326.967 135.653L327.422 78.8064Z" fill="#00032D"/>
<path d="M319.244 86.7931L317.427 85.8535C317.427 85.8535 315.364 87.6548 314.462 89.1421C313.553 90.6417 313.121 91.6174 312.883 93.3704C312.636 95.1964 313.338 98.0684 313.338 98.0684L315.155 99.4778C315.155 99.4778 314.382 96.3095 314.701 94.31C314.947 92.7632 315.312 91.9127 316.064 90.5515C316.999 88.8581 319.244 86.7931 319.244 86.7931Z" fill="#00032D"/>
<path d="M290.167 116.861L288.35 118.27L316.064 135.183L318.789 133.304L290.167 116.861Z" fill="#00032D"/>
<path d="M283.807 148.807L283.352 143.17L300.162 133.774C300.162 133.774 300.651 135.477 300.617 136.592C300.587 137.527 300.511 137.807 300.162 138.472C299.62 139.504 297.891 140.351 297.891 140.351L283.807 148.807Z" fill="#00032D"/>
<path d="M281.535 152.566L260.636 140.821V119.919L258.819 114.981L278.809 127.196C278.809 127.196 280.146 130.303 281.081 132.834C281.775 134.713 281.535 152.566 281.535 152.566Z" fill="#00032D"/>
<path d="M314.701 83.9743L312.883 83.0347C312.883 83.0347 310.821 84.836 309.919 86.3233C309.01 87.8228 308.578 88.7986 308.34 90.5515C308.092 92.3775 308.794 95.2496 308.794 95.2496L310.612 96.659C310.612 96.659 309.839 93.4907 310.157 91.4911C310.404 89.9444 310.768 89.0939 311.52 87.7327C312.456 86.0392 314.701 83.9743 314.701 83.9743Z" fill="#00032D"/>
<path d="M308.34 80.2159L306.523 79.2762C306.523 79.2762 304.461 81.0776 303.559 82.5649C302.649 84.0644 302.217 85.0402 301.98 86.7931C301.732 88.6191 302.434 91.4911 302.434 91.4911L304.251 92.9006C304.251 92.9006 303.478 89.7323 303.797 87.7327C304.043 86.186 304.408 85.3354 305.16 83.9743C306.095 82.2808 308.34 80.2159 308.34 80.2159Z" fill="#00032D"/>
<path d="M302.888 76.4574L301.071 75.5178C301.071 75.5178 299.009 77.3191 298.107 78.8064C297.197 80.306 296.765 81.2817 296.528 83.0347C296.28 84.8607 296.982 87.7327 296.982 87.7327L298.799 89.1421C298.799 89.1421 298.026 85.9738 298.345 83.9743C298.591 82.4276 298.956 81.577 299.708 80.2159C300.643 78.5224 302.888 76.4574 302.888 76.4574Z" fill="#00032D"/>
<path d="M301.071 99.4778V98.5382L303.343 99.9476L305.614 97.5986V98.5382L303.343 100.887L301.071 99.4778Z" fill="#00032D"/>
<path d="M306.523 103.236V102.297L308.794 103.706L311.066 101.357V102.297L308.794 104.646L306.523 103.236Z" fill="#00032D"/>
<path d="M270.177 170.418C270.938 169.354 272.449 168.539 272.449 168.539C272.449 168.539 275.681 170.072 277.9 170.418C278.91 170.576 283.292 170.925 286.533 169.948C287.071 169.786 287.378 169.704 287.896 169.479C288.849 169.063 290.167 168.539 290.167 168.539C290.167 168.539 286.713 168.731 285.624 169.009C284.576 169.276 283.521 169.418 282.444 169.479C280.839 169.569 279.027 169.308 277.446 169.009C276.007 168.737 273.812 167.599 273.812 167.599C273.812 167.599 276.075 166.939 276.992 166.66C277.86 166.395 279.718 166.19 279.718 166.19V167.599C279.718 167.599 281.086 168.114 281.989 168.069C282.72 168.033 283.807 167.599 283.807 167.599V166.19C283.807 166.19 285.21 166.395 286.078 166.66C286.995 166.939 290.167 168.539 290.167 168.539C290.167 168.539 293.217 169.842 293.802 171.828C294.163 173.056 294.142 173.881 293.802 175.116C293.384 176.634 292.67 177.355 291.53 178.405C290.462 179.389 289.678 179.735 288.35 180.284C286.183 181.18 284.777 181.175 282.444 181.224C280.484 181.265 279.351 181.231 277.446 180.754C275.589 180.289 274.519 179.929 272.903 178.875C271.731 178.11 270.924 177.733 270.177 176.526C269.388 175.251 269.071 174.266 269.268 172.767C269.397 171.788 269.609 171.213 270.177 170.418Z" fill="#00032D"/>
<path d="M311.975 106.995V106.055L314.246 107.464L316.518 105.115V106.055L314.246 108.404L311.975 106.995Z" fill="#00032D"/>
<path d="M295.619 95.7194V94.7798L296.755 95.4845L297.891 96.1892L300.162 93.8402V94.7798L297.891 97.1288L295.619 95.7194Z" fill="#00032D"/>
<path d="M301.525 80.2159L302.888 81.1555C302.888 81.1555 301.979 81.7533 301.525 82.0951C301.008 82.4847 300.616 83.0347 300.616 83.0347" stroke="black" stroke-width="0.2"/>
<path d="M306.038 86.2154L307.588 86.7616C307.588 86.7616 306.858 87.581 306.504 88.0316C306.102 88.5455 305.86 89.181 305.86 89.181" stroke="black" stroke-width="0.2"/>
<path d="M311.066 92.9006L312.429 93.3704L311.975 94.31L311.748 95.0147V95.6014" stroke="black" stroke-width="0.2"/>
<g clip-path="url(#clip0_315_3)">
<path d="M307.965 83.32L308.404 82.9393L308.241 82.342L308.772 82.6748L309.275 82.3817L309.166 82.9677L309.639 83.3829L309.04 83.4123L308.83 83.9639L308.57 83.3945L307.965 83.32Z" fill="black"/>
</g>
<path d="M316.549 122.202L316.921 122.585L317.367 122.174L317.189 122.926L317.502 123.417L317.02 123.5L316.768 124.214L316.648 123.512L316.178 123.464L316.587 122.948L316.549 122.202Z" fill="black"/>
<g clip-path="url(#clip1_315_3)">
<path d="M316.116 93.486L316.487 93.786L316.934 93.4641L316.755 94.0528L317.068 94.4369L316.587 94.5023L316.334 95.061L316.215 94.5118L315.745 94.4739L316.154 94.0697L316.116 93.486Z" fill="black"/>
</g>
<g clip-path="url(#clip2_315_3)">
<path d="M293.404 84.3116L293.723 83.8198L293.406 83.2929L294.006 83.46L294.41 83.034L294.463 83.6283L295.029 83.8911L294.461 84.0916L294.408 84.6816L294.005 84.2095L293.404 84.3116Z" fill="black"/>
</g>
<ellipse cx="295.846" cy="78.1017" rx="0.681485" ry="0.704706" fill="#30CBFC"/>
<ellipse cx="300.389" cy="87.4978" rx="0.681485" ry="0.704706" fill="#30CBFC"/>
<ellipse cx="0.939607" cy="0.454323" rx="0.939607" ry="0.454323" transform="matrix(0.00506373 -0.999987 0.999985 0.00541469 306.069 93.3704)" fill="#30CBFC"/>
<ellipse cx="0.929817" cy="0.459332" rx="0.929817" ry="0.459332" transform="matrix(0.552683 -0.833392 0.815715 0.578454 313.338 87.4033)" fill="#30CBFC"/>
<ellipse cx="0.929817" cy="0.459332" rx="0.929817" ry="0.459332" transform="matrix(0.552683 -0.833392 0.815715 0.578454 317.881 91.1617)" fill="#30CBFC"/>
<path d="M282.444 170.418V169.479C282.444 169.479 284.414 169.353 285.624 169.009C286.927 168.638 288.804 167.599 288.804 167.599L290.167 168.539L282.444 170.418Z" fill="#027027"/>
<path d="M363.313 110.753L332.874 92.9006V102.766L336.054 104.646L334.237 106.995L332.874 109.344L331.965 113.102C331.965 113.102 331.24 115.859 331.965 117.33C332.594 118.607 334.237 119.679 334.237 119.679L326.513 127.666L356.953 145.988L360.587 143.17L361.95 135.183L359.224 131.894V126.726L360.587 123.908L363.313 120.619V110.753Z" fill="#D8D8D8"/>
<path d="M328.785 143.17V132.364L331.056 133.774V142.7L358.316 159.143V150.686L356.953 149.747L360.587 147.868V162.432L362.405 163.841L356.498 167.599L325.15 148.337L331.056 144.579L328.785 143.17Z" fill="#D8D8D8"/>
<path d="M324.696 149.277V152.566C324.696 152.566 323.587 152.528 322.879 152.566C321.626 152.632 320.894 152.643 319.698 153.035C318.564 153.407 316.972 154.445 316.972 154.445L300.162 144.579L297.891 145.988L317.881 158.203L321.516 165.25L322.424 174.177L322.55 174.104L338.78 164.781L339.234 161.492L356.044 171.828V169.009L324.696 149.277Z" fill="#D8D8D8"/>
<path d="M336.054 236.661L367.856 207.533L335.145 187.801V175.116L320.607 183.573L314.701 180.284L290.622 200.955L336.054 236.661Z" fill="#D8D8D8"/>
<path d="M335.145 90.0817V83.0347C335.145 83.0347 343.736 84.4901 348.775 86.7931C357.088 90.5927 366.948 101.827 366.948 101.827V109.344L335.145 90.0817Z" fill="#D8D8D8"/>
<path d="M375.126 118.74V137.532H376.034V118.74H375.126Z" fill="#D8D8D8"/>
<path d="M335.145 90.0817L332.873 92.9006L363.313 110.753L366.493 109.814V108.874L335.145 90.0817Z" fill="#FAB42F"/>
<path d="M334.236 100.887V95.2496L361.95 111.223V117.8L334.236 100.887Z" fill="#FAB42F"/>
<path d="M326.513 130.955V127.666L356.953 145.988L360.587 143.17V147.868L356.953 149.747L326.513 130.955Z" fill="#FAB42F"/>
<path d="M325.15 148.337L324.696 149.277L356.044 169.009L356.498 167.599L325.15 148.337Z" fill="#FAB42F"/>
<path d="M322.878 179.814L338.78 169.479C338.78 169.479 339.719 168.534 339.688 167.599C339.65 166.44 338.78 164.781 338.78 164.781C338.78 164.781 340.475 165.507 341.051 166.66C341.708 167.974 341.96 170.888 341.96 170.888L335.145 175.116L320.607 183.573C320.607 183.573 321.061 166.19 320.152 163.841C319.026 160.93 317.881 158.203 317.881 158.203C317.881 158.203 318.328 157.468 318.789 157.264C319.279 157.047 319.698 157.264 319.698 157.264L320.607 159.613C320.607 159.613 321.77 163.111 321.97 164.311C322.601 168.112 322.424 174.177 322.424 174.177L322.878 179.814Z" fill="#FAB42F"/>
<path d="M321.97 194.848L322.878 194.378L329.239 198.137L331.056 196.727C331.056 196.727 332.287 195.439 332.419 194.378C332.562 193.227 331.511 191.559 331.511 191.559L330.602 190.62C330.602 190.62 329.519 189.725 328.785 189.21C327.928 188.61 327.482 188.175 326.513 187.801C325.665 187.474 324.241 187.331 324.241 187.331L322.878 190.15V188.741L323.333 187.331H322.878V185.922C322.878 185.922 325.437 186.265 326.967 186.861C328.081 187.296 328.692 187.605 329.693 188.271C330.649 188.906 331.225 189.258 331.965 190.15C333.102 191.522 334.116 192.672 333.782 194.378C333.528 195.675 332.955 196.599 331.965 197.667C331.08 198.622 329.239 199.546 329.239 199.546C329.239 199.546 328.221 199.963 326.967 200.486C325.561 201.072 325.728 201.589 324.241 201.895C321.799 202.399 316.972 201.895 316.972 201.895C316.972 201.895 314.674 201.101 313.338 200.486C311.49 199.634 310.401 198.916 309.249 197.197L309.199 197.123C308.457 196.016 307.959 195.273 307.886 193.908C307.814 192.575 308.136 191.769 308.794 190.62C309.628 189.165 310.573 188.674 311.975 187.801C313.132 187.08 315.609 186.392 315.609 186.392C315.609 186.392 316.978 185.974 317.881 185.922C318.235 185.901 318.789 185.922 318.789 185.922V187.331C318.789 187.331 316.939 187.567 316.064 187.801C314.977 188.091 314.35 188.24 313.338 188.741C312.183 189.311 311.513 189.681 310.612 190.62C309.986 191.271 309.529 191.629 309.249 192.499C308.968 193.369 309.249 194.848 309.249 194.848L318.789 193.439V194.378L310.157 196.257C310.157 196.257 311.121 197.59 311.975 198.137C312.312 198.353 312.521 198.44 312.883 198.606C315.015 199.588 315.899 199.926 317.881 200.016C319.839 200.105 326.513 199.076 326.513 199.076L327.876 198.606L321.97 194.848Z" fill="#FAB42F"/>
<path d="M335.145 83.0347L356.953 70.35C356.953 70.35 367.967 72.8687 374.217 77.397C380.004 81.5898 386.938 91.0213 386.938 91.0213V148.807V184.982L367.856 207.533L335.145 187.801V175.116C335.145 175.116 340.597 171.358 341.051 170.888C342.055 169.85 341.628 168.471 341.051 167.13C340.542 165.944 338.78 164.781 338.78 164.781L339.234 161.492L356.498 171.828L366.039 166.66L366.493 101.357C366.493 101.357 358.385 92.4661 351.955 88.6723C345.859 85.0754 335.145 83.0347 335.145 83.0347Z" fill="#0B065C"/>
<path d="M331.056 142.7V133.774L358.77 150.686L358.316 159.143L331.056 142.7Z" fill="#0B065C"/>
<path d="M332.369 108.509L332.874 102.766L336.054 104.646C336.054 104.646 334.156 107.084 333.328 108.874C332.602 110.444 331.965 113.102 331.965 113.102C331.965 113.102 331.24 115.859 331.965 117.33C332.594 118.607 334.237 119.679 334.237 119.679L330.602 123.438L332.369 108.509Z" fill="#0B065C"/>
<path d="M342.414 130.955L340.143 129.545L342.414 127.196L344.686 128.606L342.414 130.955Z" fill="#0B065C"/>
<path d="M347.866 134.713L345.595 133.304L347.866 130.955L350.138 132.364L347.866 134.713Z" fill="#0B065C"/>
<path d="M320.607 183.573L318.79 182.633V198.867C318.79 198.867 320.158 199.121 321.061 199.076C321.792 199.04 322.878 199.076 322.878 199.076V182.163L320.607 183.573Z" fill="#0B065C"/>
<path d="M353.318 138.472L351.046 137.062L353.318 134.713L355.59 136.123L353.318 138.472Z" fill="#0B065C"/>
<path d="M336.962 127.196L334.691 125.787L336.962 123.438L339.234 124.847L336.962 127.196Z" fill="#0B065C"/>
<path d="M336.962 89.1421V85.3837C336.962 85.3837 344.386 87.0664 348.775 89.1421C355.81 92.469 364.676 101.357 364.676 101.357V106.055L336.962 89.1421Z" fill="#002776"/>
<path d="M366.493 109.814L363.313 110.753V120.619C363.313 120.619 360.037 123.636 359.224 126.257C358.466 128.703 358.316 130.485 359.679 132.834C360.337 133.968 361.95 135.183 361.95 135.183L360.587 143.041V144.109V162.432L362.404 163.841L356.498 167.599L356.044 169.009V171.828H356.498L366.039 166.66L366.493 109.814Z" fill="#002776"/>
<path d="M358.316 117.8L356.498 116.861C356.498 116.861 354.436 118.662 353.534 120.149C352.625 121.649 352.193 122.624 351.955 124.377C351.707 126.203 352.409 129.075 352.409 129.075L354.227 130.485C354.227 130.485 353.454 127.317 353.772 125.317C354.019 123.77 354.383 122.92 355.135 121.559C356.071 119.865 358.316 117.8 358.316 117.8Z" fill="#002776"/>
<path d="M329.239 147.868L327.422 149.277L355.135 166.19L357.861 164.311L329.239 147.868Z" fill="#002776"/>
<path d="M322.878 179.814L322.424 174.177L339.234 164.781C339.234 164.781 339.723 166.484 339.688 167.599C339.659 168.534 339.583 168.814 339.234 169.479C338.692 170.511 336.962 171.358 336.962 171.358L322.878 179.814Z" fill="#002776"/>
<path d="M320.607 183.573L299.708 171.828V150.926L297.891 145.988L317.881 158.203C317.881 158.203 319.217 161.311 320.152 163.841C320.847 165.72 320.607 183.573 320.607 183.573Z" fill="#002776"/>
<path d="M353.772 114.981L351.955 114.042C351.955 114.042 349.893 115.843 348.991 117.33C348.081 118.83 347.65 119.806 347.412 121.559C347.164 123.385 347.866 126.257 347.866 126.257L349.683 127.666C349.683 127.666 348.911 124.498 349.229 122.498C349.475 120.951 349.84 120.101 350.592 118.74C351.528 117.046 353.772 114.981 353.772 114.981Z" fill="#002776"/>
<path d="M347.412 111.223L345.595 110.283C345.595 110.283 343.533 112.085 342.63 113.572C341.721 115.071 341.289 116.047 341.051 117.8C340.804 119.626 341.506 122.498 341.506 122.498L343.323 123.908C343.323 123.908 342.55 120.739 342.869 118.74C343.115 117.193 343.48 116.342 344.232 114.981C345.167 113.288 347.412 111.223 347.412 111.223Z" fill="#002776"/>
<path d="M341.96 107.464L340.143 106.525C340.143 106.525 338.081 108.326 337.179 109.814C336.269 111.313 335.837 112.289 335.599 114.042C335.352 115.868 336.054 118.74 336.054 118.74L337.871 120.149C337.871 120.149 337.098 116.981 337.417 114.981C337.663 113.435 338.028 112.584 338.78 111.223C339.715 109.529 341.96 107.464 341.96 107.464Z" fill="#002776"/>
<path d="M340.143 130.485V129.545L342.414 130.955L344.686 128.606V129.545L342.414 131.894L340.143 130.485Z" fill="#002776"/>
<path d="M345.595 134.243V133.304L347.866 134.713L350.138 132.364V133.304L347.866 135.653L345.595 134.243Z" fill="#002776"/>
<path d="M309.249 201.425C310.009 200.361 311.52 199.546 311.52 199.546C311.52 199.546 314.753 201.08 316.972 201.425C317.981 201.583 322.364 201.933 325.604 200.955C326.143 200.793 326.45 200.711 326.967 200.486C327.921 200.071 329.239 199.546 329.239 199.546C329.239 199.546 325.785 199.738 324.696 200.016C323.648 200.283 322.593 200.425 321.515 200.486C319.911 200.576 318.098 200.315 316.518 200.016C315.079 199.744 312.883 198.606 312.883 198.606C312.883 198.606 315.147 197.946 316.064 197.667C316.931 197.403 318.789 197.197 318.789 197.197V198.606C318.789 198.606 320.157 199.121 321.061 199.076C321.792 199.04 322.878 198.606 322.878 198.606V197.197C322.878 197.197 324.282 197.403 325.15 197.667C326.067 197.946 329.239 199.546 329.239 199.546C329.239 199.546 332.289 200.849 332.873 202.835C333.235 204.063 333.213 204.888 332.873 206.123C332.456 207.641 331.742 208.362 330.602 209.412C329.534 210.396 328.75 210.742 327.422 211.291C325.255 212.187 323.849 212.182 321.515 212.231C319.556 212.272 318.423 212.238 316.518 211.761C314.661 211.296 313.591 210.936 311.975 209.882C310.803 209.117 309.996 208.74 309.249 207.533C308.46 206.259 308.142 205.273 308.34 203.774C308.469 202.795 308.681 202.22 309.249 201.425Z" fill="#002776"/>
<path d="M351.046 138.002V137.062L353.318 138.472L355.59 136.123V137.062L353.318 139.411L351.046 138.002Z" fill="#002776"/>
<path d="M334.691 126.726V125.787L335.827 126.492L336.962 127.196L339.234 124.847V125.787L336.962 128.136L334.691 126.726Z" fill="#002776"/>
<path d="M340.597 111.223L341.96 112.163C341.96 112.163 341.05 112.76 340.597 113.102C340.08 113.492 339.688 114.042 339.688 114.042" stroke="black" stroke-width="0.2"/>
<path d="M345.11 117.222L346.66 117.769C346.66 117.769 345.93 118.588 345.576 119.039C345.173 119.553 344.931 120.188 344.931 120.188" stroke="black" stroke-width="0.2"/>
<path d="M350.138 123.908L351.501 124.377L351.046 125.317L350.819 126.022V126.608" stroke="black" stroke-width="0.2"/>
<g clip-path="url(#clip3_315_3)">
<path d="M347.037 114.327L347.476 113.946L347.312 113.349L347.844 113.682L348.346 113.389L348.237 113.975L348.711 114.39L348.112 114.419L347.902 114.971L347.642 114.402L347.037 114.327Z" fill="black"/>
</g>
<path d="M355.621 161.811L355.992 162.195L356.439 161.783L356.261 162.535L356.573 163.026L356.092 163.11L355.839 163.823L355.72 163.122L355.25 163.073L355.659 162.557L355.621 161.811Z" fill="black"/>
<g clip-path="url(#clip4_315_3)">
<path d="M355.187 124.493L355.559 124.793L356.006 124.471L355.827 125.06L356.14 125.444L355.659 125.509L355.406 126.068L355.287 125.519L354.816 125.481L355.225 125.077L355.187 124.493Z" fill="black"/>
</g>
<g clip-path="url(#clip5_315_3)">
<path d="M332.475 115.319L332.795 114.827L332.478 114.3L333.077 114.467L333.482 114.041L333.534 114.635L334.101 114.898L333.533 115.099L333.48 115.689L333.077 115.217L332.475 115.319Z" fill="black"/>
</g>
<ellipse cx="334.918" cy="109.109" rx="0.681485" ry="0.704706" fill="#0B065C"/>
<ellipse cx="339.461" cy="118.505" rx="0.681485" ry="0.704706" fill="#0B065C"/>
<ellipse cx="0.939607" cy="0.454323" rx="0.939607" ry="0.454323" transform="matrix(0.00506373 -0.999987 0.999985 0.00541469 345.14 124.377)" fill="#0B065C"/>
<ellipse cx="0.929817" cy="0.459332" rx="0.929817" ry="0.459332" transform="matrix(0.552683 -0.833392 0.815715 0.578454 352.409 118.41)" fill="#0B065C"/>
<ellipse cx="0.929817" cy="0.459332" rx="0.929817" ry="0.459332" transform="matrix(0.552683 -0.833392 0.815715 0.578454 356.953 122.169)" fill="#0B065C"/>
<path d="M321.515 201.425V200.486C321.515 200.486 323.486 200.36 324.696 200.016C325.998 199.645 327.876 198.606 327.876 198.606L329.239 199.546L321.515 201.425Z" fill="#FAB42F"/>
<path d="M406.02 144.579L375.58 126.726V136.592L378.76 138.472L376.943 140.821L375.58 143.17L374.671 146.928C374.671 146.928 373.946 149.685 374.671 151.156C375.3 152.433 376.943 153.505 376.943 153.505L369.219 161.492L399.659 179.814L403.294 176.995L404.657 169.009L401.931 165.72V160.552L403.294 157.733L406.02 154.445V144.579Z" fill="#D8D8D8"/>
<path d="M371.491 176.995V166.19L373.763 167.599V176.526L401.022 192.969V184.512L399.659 183.573L403.294 181.694V196.257L405.111 197.667L399.205 201.425L367.856 182.163L373.763 178.405L371.491 176.995Z" fill="#D8D8D8"/>
<path d="M367.402 183.103V186.392C367.402 186.392 366.294 186.354 365.585 186.392C364.332 186.458 363.6 186.469 362.405 186.861C361.27 187.233 359.679 188.271 359.679 188.271L342.869 178.405L340.597 179.814L360.587 192.029L364.222 199.076L365.13 208.003L365.257 207.93L381.486 198.606L381.94 195.318L398.75 205.654V202.835L367.402 183.103Z" fill="#D8D8D8"/>
<path d="M378.76 270.486L410.563 241.359L377.852 221.627V208.942L363.313 217.399L357.407 214.11L333.328 234.781L378.76 270.486Z" fill="#D8D8D8"/>
<path d="M377.852 123.908V116.861C377.852 116.861 386.443 118.316 391.481 120.619C399.794 124.419 409.654 135.653 409.654 135.653V143.17L377.852 123.908Z" fill="#D8D8D8"/>
<path d="M417.832 152.566V171.358H418.741V152.566H417.832Z" fill="#D8D8D8"/>
<path d="M377.852 123.908L375.58 126.726L406.02 144.579L409.2 143.639V142.7L377.852 123.908Z" fill="#FAB42F"/>
<path d="M376.943 134.713V129.075L404.657 145.049V151.626L376.943 134.713Z" fill="#FAB42F"/>
<path d="M369.219 164.781V161.492L399.659 179.814L403.294 176.995V181.694L399.659 183.573L369.219 164.781Z" fill="#FAB42F"/>
<path d="M367.856 182.163L367.402 183.103L398.75 202.835L399.205 201.425L367.856 182.163Z" fill="#FAB42F"/>
<path d="M365.585 213.64L381.486 203.304C381.486 203.304 382.425 202.36 382.395 201.425C382.357 200.266 381.486 198.606 381.486 198.606C381.486 198.606 383.181 199.333 383.758 200.486C384.415 201.8 384.666 204.714 384.666 204.714L377.852 208.942L363.313 217.399C363.313 217.399 363.768 200.016 362.859 197.667C361.733 194.756 360.587 192.029 360.587 192.029C360.587 192.029 361.035 191.294 361.496 191.09C361.985 190.873 362.405 191.09 362.405 191.09L363.313 193.439C363.313 193.439 364.477 196.936 364.676 198.137C365.308 201.938 365.131 208.003 365.131 208.003L365.585 213.64Z" fill="#FAB42F"/>
<path d="M364.676 228.674L365.585 228.204L371.945 231.963L373.763 230.553C373.763 230.553 374.994 229.265 375.126 228.204C375.269 227.053 374.217 225.385 374.217 225.385L373.308 224.446C373.308 224.446 372.225 223.551 371.491 223.036C370.635 222.436 370.189 222.001 369.22 221.627C368.372 221.3 366.948 221.157 366.948 221.157L365.585 223.976V222.566L366.039 221.157H365.585V219.748C365.585 219.748 368.143 220.09 369.674 220.687C370.788 221.121 371.399 221.431 372.4 222.097C373.355 222.732 373.932 223.084 374.671 223.976C375.809 225.348 376.823 226.498 376.489 228.204C376.235 229.501 375.661 230.425 374.671 231.493C373.786 232.448 371.945 233.372 371.945 233.372C371.945 233.372 370.927 233.789 369.674 234.312C368.268 234.898 368.435 235.414 366.948 235.721C364.506 236.224 359.679 235.721 359.679 235.721C359.679 235.721 357.381 234.927 356.044 234.312C354.196 233.46 353.108 232.742 351.955 231.023L351.906 230.949C351.163 229.842 350.665 229.099 350.592 227.734C350.521 226.401 350.842 225.595 351.501 224.446C352.335 222.99 353.28 222.5 354.681 221.627C355.839 220.906 358.316 220.217 358.316 220.217C358.316 220.217 359.684 219.8 360.587 219.748C360.942 219.727 361.496 219.748 361.496 219.748V221.157C361.496 221.157 359.646 221.393 358.77 221.627C357.684 221.917 357.056 222.066 356.044 222.566C354.89 223.137 354.22 223.507 353.318 224.446C352.693 225.096 352.236 225.455 351.955 226.325C351.675 227.195 351.955 228.674 351.955 228.674L361.496 227.264V228.204L352.864 230.083C352.864 230.083 353.828 231.416 354.681 231.963C355.019 232.178 355.227 232.265 355.59 232.432C357.722 233.414 358.606 233.752 360.587 233.842C362.545 233.93 369.22 232.902 369.22 232.902L370.583 232.432L364.676 228.674Z" fill="#FAB42F"/>
<path d="M377.851 116.861L399.659 104.176C399.659 104.176 410.673 106.695 416.923 111.223C422.71 115.416 429.644 124.847 429.644 124.847V182.633V218.808L410.563 241.359L377.851 221.627V208.942C377.851 208.942 383.303 205.184 383.758 204.714C384.761 203.676 384.334 202.297 383.758 200.955C383.248 199.77 381.486 198.606 381.486 198.606L381.94 195.318L399.205 205.654L408.745 200.486L409.2 135.183C409.2 135.183 401.091 126.292 394.661 122.498C388.565 118.901 377.851 116.861 377.851 116.861Z" fill="#FAB42F"/>
<path d="M373.763 176.526V167.599L401.476 184.512L401.022 192.969L373.763 176.526Z" fill="#FAB42F"/>
<path d="M375.075 142.335L375.58 136.592L378.76 138.472C378.76 138.472 376.862 140.909 376.034 142.7C375.308 144.27 374.671 146.928 374.671 146.928C374.671 146.928 373.946 149.685 374.671 151.156C375.3 152.433 376.943 153.505 376.943 153.505L373.308 157.264L375.075 142.335Z" fill="#FAB42F"/>
<path d="M385.121 164.781L382.849 163.371L385.121 161.022L387.392 162.432L385.121 164.781Z" fill="#FAB42F"/>
<path d="M390.573 168.539L388.301 167.13L390.573 164.781L392.844 166.19L390.573 168.539Z" fill="#FAB42F"/>
<path d="M363.313 217.399L361.496 216.459V232.692C361.496 232.692 362.864 232.947 363.767 232.902C364.498 232.866 365.585 232.902 365.585 232.902V215.989L363.313 217.399Z" fill="#FAB42F"/>
<path d="M396.024 172.297L393.753 170.888L396.024 168.539L398.296 169.948L396.024 172.297Z" fill="#FAB42F"/>
<path d="M379.669 161.022L377.397 159.613L379.669 157.264L381.94 158.673L379.669 161.022Z" fill="#FAB42F"/>
<path d="M379.669 122.968V119.21C379.669 119.21 387.092 120.892 391.481 122.968C398.516 126.295 407.382 135.183 407.382 135.183V139.881L379.669 122.968Z" fill="#027027"/>
<path d="M409.2 143.639L406.019 144.579V154.445C406.019 154.445 402.743 157.462 401.931 160.083C401.172 162.528 401.022 164.311 402.385 166.66C403.043 167.794 404.656 169.009 404.656 169.009L403.293 176.866V177.935V196.257L405.111 197.667L399.205 201.425L398.75 202.835V205.654H399.205L408.745 200.486L409.2 143.639Z" fill="#027027"/>
<path d="M401.022 151.626L399.205 150.686C399.205 150.686 397.143 152.488 396.24 153.975C395.331 155.475 394.899 156.45 394.661 158.203C394.414 160.029 395.116 162.901 395.116 162.901L396.933 164.311C396.933 164.311 396.16 161.142 396.479 159.143C396.725 157.596 397.09 156.746 397.842 155.384C398.777 153.691 401.022 151.626 401.022 151.626Z" fill="#027027"/>
<path d="M371.945 181.694L370.128 183.103L397.842 200.016L400.568 198.137L371.945 181.694Z" fill="#027027"/>
<path d="M365.585 213.64L365.13 208.003L381.94 198.606C381.94 198.606 382.429 200.31 382.395 201.425C382.365 202.36 382.289 202.64 381.94 203.304C381.398 204.337 379.669 205.184 379.669 205.184L365.585 213.64Z" fill="#027027"/>
<path d="M363.313 217.399L342.414 205.654V184.752L340.597 179.814L360.587 192.029C360.587 192.029 361.924 195.136 362.859 197.667C363.553 199.546 363.313 217.399 363.313 217.399Z" fill="#027027"/>
<path d="M396.479 148.807L394.661 147.868C394.661 147.868 392.599 149.669 391.697 151.156C390.788 152.656 390.356 153.632 390.118 155.384C389.871 157.21 390.572 160.083 390.572 160.083L392.39 161.492C392.39 161.492 391.617 158.324 391.935 156.324C392.182 154.777 392.546 153.927 393.298 152.566C394.234 150.872 396.479 148.807 396.479 148.807Z" fill="#027027"/>
<path d="M390.118 145.049L388.301 144.109C388.301 144.109 386.239 145.911 385.337 147.398C384.427 148.897 383.995 149.873 383.758 151.626C383.51 153.452 384.212 156.324 384.212 156.324L386.029 157.733C386.029 157.733 385.256 154.565 385.575 152.566C385.821 151.019 386.186 150.168 386.938 148.807C387.873 147.114 390.118 145.049 390.118 145.049Z" fill="#027027"/>
<path d="M384.666 141.29L382.849 140.351C382.849 140.351 380.787 142.152 379.885 143.639C378.975 145.139 378.543 146.115 378.306 147.868C378.058 149.694 378.76 152.566 378.76 152.566L380.577 153.975C380.577 153.975 379.805 150.807 380.123 148.807C380.369 147.26 380.734 146.41 381.486 145.049C382.421 143.355 384.666 141.29 384.666 141.29Z" fill="#027027"/>
<path d="M382.849 164.311V163.371L385.121 164.781L387.392 162.432V163.371L385.121 165.72L382.849 164.311Z" fill="#027027"/>
<path d="M388.301 168.069V167.13L390.572 168.539L392.844 166.19V167.13L390.572 169.479L388.301 168.069Z" fill="#027027"/>
<path d="M351.955 235.251C352.716 234.187 354.227 233.372 354.227 233.372C354.227 233.372 357.459 234.905 359.678 235.251C360.688 235.408 365.07 235.758 368.311 234.781C368.849 234.619 369.156 234.537 369.674 234.312C370.627 233.896 371.945 233.372 371.945 233.372C371.945 233.372 368.491 233.564 367.402 233.842C366.354 234.109 365.299 234.251 364.222 234.312C362.617 234.402 360.805 234.141 359.224 233.842C357.785 233.569 355.59 232.432 355.59 232.432C355.59 232.432 357.853 231.772 358.77 231.493C359.638 231.228 361.496 231.023 361.496 231.023V232.432C361.496 232.432 362.864 232.947 363.767 232.902C364.498 232.866 365.585 232.432 365.585 232.432V231.023C365.585 231.023 366.988 231.228 367.856 231.493C368.773 231.772 371.945 233.372 371.945 233.372C371.945 233.372 374.995 234.675 375.58 236.661C375.941 237.889 375.92 238.714 375.58 239.949C375.162 241.467 374.448 242.188 373.308 243.238C372.24 244.222 371.456 244.568 370.128 245.117C367.961 246.013 366.555 246.008 364.222 246.057C362.262 246.098 361.129 246.063 359.224 245.587C357.367 245.122 356.297 244.762 354.681 243.708C353.509 242.943 352.702 242.565 351.955 241.359C351.166 240.084 350.849 239.099 351.046 237.6C351.175 236.621 351.387 236.046 351.955 235.251Z" fill="#027027"/>
<path d="M393.753 171.828V170.888L396.024 172.297L398.296 169.948V170.888L396.024 173.237L393.753 171.828Z" fill="#027027"/>
<path d="M377.397 160.552V159.613L378.533 160.317L379.669 161.022L381.94 158.673V159.613L379.669 161.962L377.397 160.552Z" fill="#027027"/>
<path d="M383.303 145.049L384.666 145.988C384.666 145.988 383.757 146.586 383.303 146.928C382.786 147.318 382.395 147.868 382.395 147.868" stroke="black" stroke-width="0.2"/>
<path d="M387.816 151.048L389.367 151.595C389.367 151.595 388.636 152.414 388.283 152.865C387.88 153.378 387.638 154.014 387.638 154.014" stroke="black" stroke-width="0.2"/>
<path d="M392.844 157.733L394.207 158.203L393.753 159.143L393.526 159.848V160.434" stroke="black" stroke-width="0.2"/>
<g clip-path="url(#clip6_315_3)">
<path d="M389.743 148.153L390.182 147.772L390.019 147.175L390.55 147.508L391.053 147.215L390.944 147.801L391.418 148.216L390.818 148.245L390.609 148.797L390.348 148.227L389.743 148.153Z" fill="black"/>
</g>
<path d="M398.327 205.021L398.699 205.405L399.145 204.993L398.967 205.746L399.279 206.236L398.798 206.32L398.546 207.033L398.426 206.332L397.956 206.283L398.365 205.767L398.327 205.021Z" fill="black"/>
<g clip-path="url(#clip7_315_3)">
<path d="M397.894 158.319L398.265 158.619L398.712 158.297L398.534 158.886L398.846 159.27L398.365 159.335L398.112 159.894L397.993 159.345L397.523 159.307L397.932 158.903L397.894 158.319Z" fill="black"/>
</g>
<g clip-path="url(#clip8_315_3)">
<path d="M375.182 149.145L375.501 148.653L375.184 148.126L375.784 148.293L376.188 147.867L376.241 148.461L376.807 148.724L376.239 148.925L376.186 149.515L375.783 149.042L375.182 149.145Z" fill="black"/>
</g>
<ellipse cx="377.624" cy="142.935" rx="0.681485" ry="0.704706" fill="#FAB42F"/>
<ellipse cx="382.168" cy="152.331" rx="0.681485" ry="0.704706" fill="#FAB42F"/>
<ellipse cx="0.939607" cy="0.454323" rx="0.939607" ry="0.454323" transform="matrix(0.00506373 -0.999987 0.999985 0.00541469 387.847 158.203)" fill="#FAB42F"/>
<ellipse cx="0.929817" cy="0.459332" rx="0.929817" ry="0.459332" transform="matrix(0.552683 -0.833392 0.815715 0.578454 395.116 152.236)" fill="#FAB42F"/>
<ellipse cx="0.929817" cy="0.459332" rx="0.929817" ry="0.459332" transform="matrix(0.552683 -0.833392 0.815715 0.578454 399.659 155.995)" fill="#FAB42F"/>
<path d="M364.222 235.251V234.312C364.222 234.312 366.193 234.186 367.402 233.842C368.705 233.471 370.582 232.432 370.582 232.432L371.945 233.372L364.222 235.251Z" fill="#FAB42F"/>
<rect width="593.926" height="7.94525" transform="matrix(-0.744908 0.667168 -0.642105 -0.766616 436.201 221.434)" fill="#FAB42F"/>
<rect width="542.583" height="7.96033" transform="matrix(0.782683 0.622421 -0.596757 0.802422 31.3298 -6)" fill="#FAB42F"/>
<defs>
<clipPath id="clip0_315_3">
<rect width="2.76868" height="2.56519" fill="white" transform="matrix(0.802219 0.59703 -0.571248 0.820778 308.442 81.1555)"/>
</clipPath>
<clipPath id="clip1_315_3">
<rect width="2.70853" height="2.04865" fill="white" transform="matrix(-0.351582 0.936157 -0.927967 -0.372661 318.008 93.1942)"/>
</clipPath>
<clipPath id="clip2_315_3">
<rect width="2.74718" height="2.58454" fill="white" transform="matrix(0.938298 0.345826 -0.325864 0.945417 293.281 82.0951)"/>
</clipPath>
<clipPath id="clip3_315_3">
<rect width="2.76868" height="2.56519" fill="white" transform="matrix(0.802219 0.59703 -0.571248 0.820778 347.514 112.163)"/>
</clipPath>
<clipPath id="clip4_315_3">
<rect width="2.70853" height="2.04865" fill="white" transform="matrix(-0.351582 0.936157 -0.927967 -0.372661 357.08 124.201)"/>
</clipPath>
<clipPath id="clip5_315_3">
<rect width="2.74718" height="2.58454" fill="white" transform="matrix(0.938298 0.345826 -0.325864 0.945417 332.353 113.102)"/>
</clipPath>
<clipPath id="clip6_315_3">
<rect width="2.76868" height="2.56519" fill="white" transform="matrix(0.802219 0.59703 -0.571248 0.820778 390.221 145.988)"/>
</clipPath>
<clipPath id="clip7_315_3">
<rect width="2.70853" height="2.04865" fill="white" transform="matrix(-0.351582 0.936157 -0.927967 -0.372661 399.786 158.027)"/>
</clipPath>
<clipPath id="clip8_315_3">
<rect width="2.74718" height="2.58454" fill="white" transform="matrix(0.938298 0.345826 -0.325864 0.945417 375.059 146.928)"/>
</clipPath>
</defs>
</svg>
